<svg width="43" height="32" viewBox="0 0 43 32" fill="none" xmlns="http://www.w3.org/2000/svg">
<g clip-path="url(#clip0_118_86)">
<path d="M36.4013 2.84933C33.6606 1.64124 30.7217 0.751174 27.6488 0.241396C27.5929 0.231558 27.537 0.256145 27.5081 0.30532C27.1302 0.951145 26.7115 1.79368 26.4183 2.4559C23.1132 1.98056 19.8251 1.98056 16.5878 2.4559C16.2946 1.77896 15.8607 0.951145 15.481 0.30532C15.4522 0.257786 15.3963 0.233198 15.3403 0.241396C12.2692 0.749545 9.33021 1.63961 6.58784 2.84933C6.5641 2.85916 6.54375 2.87557 6.53025 2.89686C0.95566 10.8977 -0.571452 18.7018 0.177698 26.4092C0.181087 26.4469 0.203121 26.483 0.23363 26.5059C3.91158 29.1007 7.47431 30.676 10.9709 31.7201C11.0268 31.7365 11.0861 31.7169 11.1217 31.6726C11.9489 30.5875 12.6862 29.4434 13.3183 28.2402C13.3556 28.1697 13.32 28.0861 13.2438 28.0582C12.0743 27.632 10.9607 27.1124 9.88952 26.5223C9.80479 26.4748 9.798 26.3584 9.87595 26.3027C10.1014 26.1404 10.3268 25.9715 10.5421 25.8011C10.581 25.7699 10.6353 25.7634 10.6811 25.783C17.7183 28.8696 25.3369 28.8696 32.2911 25.783C32.3369 25.7617 32.3912 25.7683 32.4318 25.7994C32.6471 25.9699 32.8725 26.1404 33.0996 26.3027C33.1776 26.3584 33.1725 26.4748 33.0878 26.5223C32.0166 27.1239 30.903 27.632 29.7318 28.0566C29.6556 28.0845 29.6217 28.1697 29.659 28.2402C30.3047 29.4417 31.042 30.5858 31.8539 31.671C31.8878 31.7169 31.9488 31.7365 32.0047 31.7201C35.5182 30.676 39.0809 29.1007 42.7589 26.5059C42.7911 26.483 42.8115 26.4486 42.8149 26.4109C43.7114 17.5003 41.3131 9.76011 36.4572 2.89849C36.4453 2.87557 36.4251 2.85916 36.4013 2.84933ZM14.3692 21.7162C12.2505 21.7162 10.5048 19.8476 10.5048 17.5527C10.5048 15.2579 12.2167 13.3893 14.3692 13.3893C16.5386 13.3893 18.2675 15.2743 18.2336 17.5527C18.2336 19.8476 16.5217 21.7162 14.3692 21.7162ZM28.6573 21.7162C26.5386 21.7162 24.7929 19.8476 24.7929 17.5527C24.7929 15.2579 26.5047 13.3893 28.6573 13.3893C30.8268 13.3893 32.5555 15.2743 32.5217 17.5527C32.5217 19.8476 30.8268 21.7162 28.6573 21.7162Z" fill="white"/>
</g>
<defs>
<clipPath id="clip0_118_86">
<rect width="43" height="32" fill="white"/>
</clipPath>
</defs>
</svg>
