<svg width="97" height="79" viewBox="0 0 97 79" fill="none" xmlns="http://www.w3.org/2000/svg">
<g clip-path="url(#clip0_118_90)">
<path d="M73.0637 0.561296C72.7369 1.27177 72.4297 2.30164 72.0702 3.91163C71.9003 4.64818 71.6846 5.52813 71.5734 5.86707C71.0375 7.60742 70.8675 8.22664 70.325 10.2668C70.0047 11.4857 69.7236 12.5221 69.7106 12.5742C69.691 12.6264 69.5275 12.4765 69.2792 12.1636C69.0635 11.8898 68.8412 11.6682 68.7955 11.6682C68.7432 11.6682 68.6451 11.7464 68.5732 11.8377C68.3968 12.0593 68.3968 12.4439 68.5667 12.9393C68.8282 13.6889 68.717 13.8974 67.9784 14.0799C67.7104 14.1451 67.1679 14.3342 66.7692 14.5036C65.2331 15.1489 63.9782 15.4096 62.3571 15.4031C61.3309 15.4031 61.076 15.3771 59.906 15.162C57.4352 14.7122 56.9842 14.5232 55.3959 13.2652C55.0756 13.011 54.5527 12.6199 54.2455 12.3983C53.4284 11.8247 53.167 11.4531 53.0493 10.7101C53.0101 10.4428 53.0166 10.4298 53.2716 10.2668C53.5918 10.0648 53.7487 9.82359 53.9383 9.23696C54.0559 8.88498 54.0625 8.78069 53.9971 8.7155C53.9317 8.65032 53.8468 8.7155 53.5788 9.01534L53.2389 9.39991L53.0885 9.22392C52.8402 8.93712 52.7029 9.02186 52.2257 9.72582C51.9904 10.0778 51.7682 10.4102 51.7355 10.4689C51.6767 10.5536 51.5133 10.2408 50.8923 8.91105L50.1145 7.24892L49.9315 7.37928C49.7092 7.54224 49.4086 7.90725 49.2648 8.18102C48.9968 8.70247 49.0817 9.21088 49.5524 10.0061C49.7027 10.2538 49.9641 10.873 50.1406 11.3749C50.6047 12.7111 50.5851 12.9979 49.9184 14.0148C49.4543 14.7318 48.8595 15.8333 48.0817 17.4433C47.2515 19.1511 46.8005 19.9463 45.9181 21.2825C45.1403 22.4623 44.5389 23.453 44.0226 24.4112C43.6565 25.0891 43.3428 25.428 42.9637 25.5389C42.7676 25.5975 41.3884 25.6171 37.5254 25.6171C33.0741 25.6171 32.2832 25.604 31.9041 25.5128C31.1067 25.3368 30.623 24.9066 30.3223 24.1244C30.0674 23.4465 29.6752 21.1652 29.6752 20.3504C29.6752 19.9202 29.7013 19.842 30.002 19.2684C30.185 18.9294 30.3288 18.5709 30.3288 18.4797C30.3288 18.3102 30.1654 18.1212 29.7602 17.8148C29.5706 17.678 29.5379 17.6193 29.1523 16.798C29.002 16.4786 28.8647 16.3026 28.649 16.1332C28.3548 15.9115 28.3418 15.905 27.7208 15.905C27.3744 15.9115 26.6031 15.9637 26.0017 16.0224C24.9755 16.1266 24.9102 16.1266 24.9363 16.0224C24.9625 15.9441 24.8187 15.7942 24.3873 15.4683C23.8317 15.0446 23.8055 15.0186 23.9101 14.9012C24.0604 14.7383 24.2958 14.6275 24.6095 14.5753C24.9298 14.5101 25.2827 14.3342 25.4723 14.1321C25.688 13.904 25.8057 13.5715 25.9102 12.8676C25.9625 12.5091 26.0998 11.9159 26.2044 11.5379C26.4462 10.7231 26.4462 10.6644 26.2697 10.332C25.7991 9.4325 24.5572 8.86542 23.6225 9.11963C23.0865 9.26303 22.8643 9.49768 22.4002 10.4233C21.7335 11.7464 21.6812 12.4048 22.1584 13.4086C22.4002 13.9235 22.4002 14.0213 22.191 14.3798C22.0538 14.6144 21.0079 15.527 20.2693 16.0549C20.204 16.1006 20.119 16.2961 20.0798 16.5047C20.0406 16.7198 19.8968 17.0653 19.7464 17.3129C19.5765 17.5932 19.4392 17.9322 19.3542 18.3037C18.8706 20.37 19.0993 22.2537 20.0667 24.1896C20.2432 24.5285 20.4589 24.9913 20.5439 25.2129L20.7138 25.6171H16.4325H12.1511L12.1642 27.7681C12.1708 30.1276 12.1708 30.1342 11.7786 30.3362C11.5956 30.434 8.77183 30.962 7.51031 31.1314C6.94164 31.2162 5.96119 31.2422 3.38585 31.2683C0.0326819 31.3009 0 31.3009 0 31.4313C0 31.5681 0 31.5681 4.66044 31.529C7.21617 31.5095 9.72614 31.4573 10.2294 31.4182C12.3734 31.2553 14.1578 30.962 15.622 30.5318C16.073 30.4014 16.5305 30.2776 16.6351 30.2645C16.7462 30.2515 17.2495 30.3558 17.779 30.5057C19.5765 31.0076 21.2106 31.4052 21.9427 31.5095C23.1192 31.679 24.3611 31.6464 25.9102 31.4117C29.2634 30.9033 31.1067 30.4405 32.8127 29.6844C33.6755 29.3063 33.8781 29.3259 35.29 29.9125C36.8391 30.5643 37.7019 30.8642 38.8588 31.1575C41.4603 31.8224 42.9245 31.8028 48.1732 31.0532C50.1798 30.7664 52.6048 30.2841 54.2193 29.8539C55.8469 29.4106 55.775 29.4041 58.2719 30.4079C60.7884 31.4247 61.527 31.5812 63.9912 31.6594C66.5077 31.7311 69.0308 31.4117 72.031 30.6295C73.2598 30.3036 73.1945 30.3036 75.6652 30.799C79.0511 31.4834 79.4825 31.5095 88.1955 31.6138C95.6273 31.6985 96.915 31.6985 96.817 31.6007C96.7516 31.5356 95.7058 31.5095 92.503 31.4769C88.2412 31.4313 86.5091 31.3661 84.3521 31.1901C82.097 31.0011 79.3387 30.61 78.8746 30.4144C78.4301 30.2319 78.4236 30.1667 78.5478 28.0483C78.6066 27.012 78.6327 26.0929 78.6131 25.9951C78.5216 25.6431 78.3778 25.6171 76.2012 25.6171C73.4559 25.6171 73.5147 25.6431 73.018 24.3982C72.4559 22.9707 72.0898 21.9474 72.1225 21.8626C72.1552 21.7779 72.7369 21.5432 73.1553 21.452C73.3906 21.3998 73.4363 21.4063 73.5866 21.5563C73.7631 21.7323 73.7566 21.6475 73.6259 23.1141C73.5932 23.4661 73.6063 23.5247 73.737 23.6812C73.9004 23.8637 75.5802 24.6654 75.6129 24.5742C75.6195 24.5481 75.5802 24.3851 75.5149 24.2092C75.4234 23.968 75.3384 23.8637 75.1685 23.779C74.9135 23.6486 74.5802 23.3162 74.5802 23.1793C74.5802 22.9577 74.8155 22.4884 75.5606 21.2173C76.4627 19.6856 76.9986 18.6296 76.9986 18.408C76.9986 18.1994 76.7895 18.0821 76.2273 17.9582C75.4495 17.7953 75.2338 17.6323 75.2338 17.2087C75.2338 17.0978 75.4364 16.5177 75.6848 15.9181C76.4888 13.9822 76.8483 12.5938 77.0052 10.8209C77.0836 9.89529 77.0509 8.28531 76.9333 7.46402C76.6261 5.3391 75.7502 3.81385 74.1618 2.608C73.3644 2.00833 73.2468 1.78019 73.4102 1.16097C73.469 0.93935 73.469 0.789433 73.3971 0.457006L73.3056 0.0333252L73.0637 0.561296ZM70.5995 14.836C72.0898 15.2793 72.7696 16.3222 72.7631 18.1538C72.7631 19.1511 72.5212 20.0115 71.9852 20.924L71.8088 21.2173L71.0048 18.0234C70.5668 16.2635 70.2008 14.81 70.2008 14.7774C70.2008 14.7187 70.1877 14.7122 70.5995 14.836ZM50.5132 16.2179C50.5786 16.2635 50.572 16.446 50.4936 17.1826C50.3629 18.3102 50.2517 18.7795 49.9249 19.5226C49.3955 20.7219 47.2189 24.9196 46.9836 25.1934C46.6567 25.5649 46.3103 25.6627 45.7351 25.5519C45.5063 25.5128 45.2841 25.4541 45.2383 25.428C45.186 25.3889 45.892 24.0723 47.6503 20.9175C49.0229 18.4667 50.1864 16.3939 50.2387 16.3091C50.3433 16.1527 50.3825 16.1397 50.5132 16.2179ZM70.1289 18.7209C70.2727 19.1641 70.8218 20.8588 71.3512 22.4884C71.8741 24.1179 72.3186 25.4737 72.3382 25.5063C72.3513 25.5323 71.4166 25.5454 70.2531 25.5389L68.1418 25.5193L68.0373 25.3107C67.9392 25.1152 67.9392 25.063 68.0569 24.5611C68.9327 20.8132 69.5798 18.1929 69.6517 18.0691C69.704 17.9908 69.7694 17.9257 69.8021 17.9257C69.8348 17.9257 69.9786 18.2842 70.1289 18.7209ZM28.0934 24.3851C28.0803 24.9522 28.0476 25.3759 28.0019 25.4215C27.9365 25.4867 26.8646 25.7018 26.8188 25.6627C26.8123 25.6497 27.0214 25.1282 27.296 24.4959C27.7666 23.4074 27.7927 23.3553 27.9496 23.3879L28.1195 23.4205L28.0934 24.3851Z" fill="white"/>
<path d="M71.4888 34.6247C71.43 34.6704 71.3581 34.7812 71.3254 34.8724C71.2927 34.9637 71.2862 36.5346 71.2993 38.3662L71.3254 41.7035L71.5346 41.7556C71.6457 41.7882 73.5151 41.8143 75.6787 41.8143H79.6266L79.79 42.0098L79.96 42.1988L79.9142 45.5622C79.8946 47.4068 79.8423 50.3987 79.8031 52.2107C79.7574 54.0228 79.7443 55.8022 79.7704 56.1607C79.8162 56.9755 79.9992 57.9402 80.2541 58.7419C80.5417 59.6414 80.6659 60.2997 80.6659 61.0037C80.6659 62.1835 80.313 63.1286 79.5286 64.0607C79.2475 64.3931 79.1299 64.7712 79.1756 65.1818C79.2148 65.5403 79.4828 65.788 79.9404 65.8988C80.2214 65.964 80.3456 65.951 81.2019 65.7424C82.3392 65.4621 83.5223 65.0645 84.1825 64.7451C84.7512 64.4648 85.2153 64.0346 85.4767 63.5458C85.6467 63.2199 85.6597 63.1417 85.6597 62.4768C85.6597 61.7924 85.6467 61.7337 85.4048 61.1732C84.5355 59.1395 84.3524 57.8098 84.6466 55.535C85.0518 52.3476 85.176 50.2162 85.2087 45.8229C85.2283 43.4634 85.2675 41.9772 85.3068 41.8012C85.346 41.6513 85.4506 41.4623 85.5421 41.3775C85.8558 41.0842 86.8493 41.1429 89.6665 41.6252C90.3986 41.7426 91.1372 41.8468 91.3072 41.8468C91.6471 41.8468 91.8693 41.6969 91.9412 41.4297C91.9608 41.345 91.9673 40.0609 91.9543 38.5813C91.9347 36.0392 91.9281 35.8697 91.8039 35.622C91.732 35.4786 91.5686 35.2961 91.4444 35.2114C91.1895 35.0354 91.0588 35.0354 89.2221 35.2049C88.3658 35.2766 86.4702 35.2505 84.81 35.1266C84.3067 35.094 81.6137 35.0223 78.8292 34.9702C73.8354 34.8789 73.7504 34.8789 72.9791 34.716C72.1098 34.5335 71.6522 34.5074 71.4888 34.6247Z" fill="white"/>
<path d="M5.64091 35.5311C5.39906 35.655 5.34677 35.9483 5.43174 36.6392C5.49057 37.0694 5.51018 38.549 5.50364 41.6517C5.49057 46.7815 5.63437 53.6646 5.77817 54.4598C5.88929 55.0856 6.00695 55.5353 6.23572 56.1676C6.44488 56.7477 6.45142 57.0997 6.26187 57.9666C6.07885 58.84 6.06577 60.0263 6.23572 60.5804C6.4122 61.167 6.68019 61.6494 7.11813 62.1904C7.34037 62.4576 7.57568 62.8291 7.64758 63.0182C7.88943 63.6569 7.76524 64.4978 7.37959 64.8172C7.10506 65.0518 6.79785 65.117 5.99387 65.117C5.14414 65.117 4.86961 65.2148 4.72581 65.5602C4.4709 66.173 5.01342 66.9291 6.43835 67.9524C8.94832 69.7514 9.39933 70.1621 9.4647 70.69C9.50391 71.0485 9.43201 71.1398 9.03983 71.2376C8.80452 71.2962 8.66726 71.2962 8.42541 71.2376C8.16395 71.1724 8.02015 71.1724 7.60183 71.2506L7.09199 71.3418L7.1116 71.6678C7.14428 72.1957 7.24232 72.3978 7.69333 72.8475C8.01362 73.1604 8.28161 73.3429 8.71955 73.558C9.56928 73.9752 10.0007 74.073 11.0138 74.073C11.8178 74.0795 11.8832 74.0664 12.2361 73.897C13.4388 73.3103 13.6611 71.9937 12.7786 70.6249C12.5433 70.2468 11.406 68.8715 10.772 68.1936C10.1379 67.5157 9.97453 67.0659 10.1837 66.5966C10.3536 66.2186 10.6216 66.0621 11.5171 65.8275C12.7264 65.5146 13.3081 65.1496 13.4388 64.6151C13.563 64.1263 13.197 63.3832 12.393 62.5293C12.0989 62.2034 11.8113 61.8188 11.7067 61.6037C11.5563 61.2778 11.5367 61.167 11.5433 60.5217C11.5433 59.8569 11.5629 59.7526 11.7982 59.0877L12.0596 58.3707L12.0531 57.3604C12.0466 56.4805 12.0204 56.2719 11.8701 55.7309C11.504 54.4142 11.3668 53.8211 11.1119 52.4392C10.9681 51.6505 10.8243 50.8814 10.7916 50.7249L10.7328 50.4512L12.3146 50.4381C14.367 50.4186 14.4062 50.4186 14.6284 50.5555C14.9357 50.7315 15.0664 51.0508 15.3278 52.2111C15.622 53.5343 15.8311 54.2904 16.073 54.9031C16.7332 56.5587 16.792 57.3083 16.3671 58.5728C16.2168 59.003 16.1906 59.1985 16.1906 59.8047C16.1906 61.0367 16.3606 61.3951 18.1581 63.8786C19.4588 65.6711 19.8053 66.2251 19.8053 66.5054C19.8053 66.7596 19.5177 67.0464 19.0993 67.2028C17.4718 67.809 16.8639 69.23 17.596 70.7226C17.8509 71.2441 18.6875 72.1045 19.2497 72.4304C20.289 73.03 21.0733 73.1995 22.9493 73.2451C24.2108 73.2777 24.3023 73.2712 24.5507 73.1474C24.6879 73.0692 24.8906 72.9453 24.9886 72.8606L25.1716 72.7107L24.9559 72.3196C24.7795 72.0067 24.5245 71.7525 23.6617 71.0029C22.3218 69.8492 22.093 69.6015 22.093 69.3147C22.093 68.9301 22.3479 68.8063 23.6487 68.539C24.5638 68.3565 24.9167 68.2197 25.1912 67.9459C25.7795 67.3593 25.6488 66.4858 24.8644 65.7753C24.4461 65.3908 23.3872 64.6282 22.6486 64.1719C21.9296 63.7221 21.2302 63.0312 21.0929 62.614C20.9426 62.1773 20.9557 61.6363 21.1125 61.2843C21.1844 61.1279 21.4132 60.7824 21.6289 60.5217C22.2956 59.6939 22.5375 58.9769 22.4656 58.0253C22.446 57.7124 22.1322 56.3436 21.642 54.349C21.2041 52.6022 20.8511 51.0704 20.8511 50.94C20.8511 50.764 20.9034 50.6532 21.0341 50.5164C21.3413 50.21 21.2302 50.2165 25.1128 50.4316C25.7272 50.4642 25.7468 50.4642 25.9103 50.3013C26.0606 50.1513 26.0802 50.0796 26.0802 49.6625C26.0802 49.1867 25.8187 45.6017 25.5246 42.0688C25.4266 40.863 25.2762 39.5789 25.1324 38.7446C25.0082 37.995 24.8775 37.0694 24.8448 36.6914C24.8121 36.3068 24.7402 35.9157 24.6814 35.8049C24.4919 35.4333 24.5703 35.4399 20.0536 35.5246C16.2887 35.6028 9.32743 35.5833 6.6998 35.492C6.09192 35.4725 5.73895 35.4855 5.64091 35.5311ZM20.021 41.4626C20.2955 41.5865 20.3282 41.769 20.3282 43.2356C20.3282 44.7804 20.302 44.8977 19.936 45.015C19.5765 45.1324 10.9811 45.2041 10.8373 45.0933C10.7393 45.0216 10.7262 44.8195 10.7066 43.4311C10.687 41.6582 10.6805 41.6908 11.1511 41.5865C11.2883 41.5539 12.1708 41.5213 13.1055 41.5148C14.0402 41.5083 15.5435 41.4822 16.439 41.4561C19.1908 41.3844 19.851 41.3844 20.021 41.4626Z" fill="white"/>
<path d="M51.5392 35.6221C51.4477 35.7068 51.3758 35.8306 51.3758 35.8958C51.3758 35.961 51.3169 37.1538 51.245 38.5552C51.0097 43.2092 50.964 44.9104 50.9574 49.4731C50.9509 55.0657 51.0163 55.9 51.6307 57.9402C52.0556 59.3416 52.1275 59.7523 52.1209 60.8147C52.1144 61.9424 51.964 62.5942 51.4738 63.6827C50.9182 64.9081 50.8725 65.6773 51.3104 66.2834C51.6699 66.7788 52.3235 67.0591 53.5132 67.2286C54.2452 67.3394 55.1799 67.561 55.4022 67.6783C55.4806 67.724 55.6179 67.8478 55.7159 67.9586L55.8859 68.1672L55.6244 68.4279C55.4545 68.5974 55.1799 68.7669 54.8727 68.8907C54.6047 69.0015 54.1603 69.184 53.8857 69.2948C53.2582 69.5556 52.6308 69.9727 52.4412 70.2595C52.1144 70.7419 52.2909 71.322 53.0295 72.2215C54.1276 73.5577 55.8597 74.392 57.8533 74.5419L58.4024 74.5811L58.8926 74.19C59.4417 73.7532 59.677 73.4013 59.677 73.0297C59.677 72.5669 59.4286 72.3193 58.5331 71.8891C57.7684 71.5175 57.0624 70.8592 57.0624 70.5137C57.0624 70.1031 57.5527 69.7576 58.7684 69.3209C60.3894 68.7278 60.9843 68.1607 60.9843 67.183C60.9843 66.668 60.9124 66.4594 60.6378 66.1726C60.3764 65.8989 60.213 65.8141 58.9645 65.3188C57.0951 64.5757 56.4284 64.1716 56.1408 63.598C55.9512 63.2395 55.9905 62.7115 56.2323 62.2748C56.6833 61.4665 57.069 60.6127 57.1605 60.1955C57.2193 59.9413 57.2912 59.3677 57.3173 58.9114C57.3631 58.1162 57.3696 58.0706 57.5461 57.8881C57.7945 57.6273 57.9252 57.5882 58.9907 57.3992C60.9058 57.0603 61.4745 57.0016 63.7622 56.9038C64.6642 56.8647 65.4748 56.8191 65.5728 56.7995C65.8735 56.7409 66.0826 56.4671 66.0826 56.1412C66.0826 55.9065 64.8146 49.1537 64.7558 49.1081C64.7492 49.1016 64.3897 49.1472 63.9583 49.2124C62.6772 49.4014 57.0755 49.5514 56.7944 49.408C56.4807 49.2385 56.4742 49.1929 56.4742 45.5622V42.1728H62.7295H68.9783L68.939 40.3933C68.8345 36.0849 68.8149 35.7915 68.6841 35.6155L68.5599 35.4591H60.128H51.6961L51.5392 35.6221Z" fill="white"/>
<path d="M35.1138 36.0195C35.0289 36.039 34.9374 36.1173 34.9047 36.1955C34.872 36.2737 34.7413 37.1015 34.6105 38.0336C34.336 39.9369 34.1399 40.9472 33.4732 43.7696C32.9372 46.0574 32.2378 49.2122 32.0025 50.4181C31.7476 51.7282 31.6496 52.8428 31.5711 55.1111C31.4273 59.4066 31.1724 61.0753 30.3227 63.2132C29.9501 64.1518 30.0155 65.123 30.5318 66.1399C31.0221 67.1176 31.5973 67.5347 33.1202 68.0432C34.1465 68.3821 34.7086 68.4734 35.7544 68.4668C36.8721 68.4668 37.4343 68.343 38.4343 67.8867C39.2252 67.5217 39.6174 67.437 40.3626 67.4761C42.245 67.5804 43.9249 68.9557 43.9314 70.3962C43.938 71.1393 43.4608 71.6803 42.5392 71.9866C41.8463 72.2213 41.6829 72.306 41.513 72.5211C41.2515 72.847 41.3692 73.3685 41.8725 74.1181C42.245 74.6786 42.6372 75.0241 43.2843 75.35C44.0818 75.7476 44.5981 75.8389 46.0492 75.8389C47.2258 75.8389 47.3173 75.8258 47.8206 75.6564C48.3958 75.4673 48.9841 75.1154 49.4612 74.6852C49.775 74.3918 50.2652 73.8117 50.2652 73.727C50.2652 73.6944 49.873 73.6227 49.4024 73.564C47.1081 73.2642 46.5264 73.0621 46.3434 72.5146C46.2715 72.306 46.2845 72.2408 46.4349 71.9345C46.5983 71.5956 46.8205 71.3674 47.8467 70.4679C48.4677 69.9139 48.6638 69.5228 48.6115 68.9361C48.5396 68.2387 48.1997 67.3913 47.6245 66.5049C47.4676 66.2572 47.2584 65.84 47.1539 65.5728C46.9905 65.123 46.9708 65.0057 46.9708 64.1714C46.9643 63.5717 47.0035 62.9981 47.0885 62.5092C47.1865 61.8965 47.1996 61.5315 47.1735 60.4886C47.1408 59.009 47.0689 58.5788 46.5394 56.48C46.0623 54.6027 45.5067 52.0606 45.1276 50.027C44.7615 48.0911 44.7354 47.9738 44.219 46.4094C43.7484 44.9819 43.6896 44.7603 42.6503 39.9434C42.2385 38.0466 41.8725 36.4432 41.8398 36.3845C41.6568 36.039 41.7744 36.0521 38.4016 36.0195C36.676 35.9999 35.1988 35.9999 35.1138 36.0195ZM39.3429 47.5827C40.3168 50.9917 41.2123 54.5115 41.8006 57.3208C42.0489 58.4941 42.5522 61.1665 42.5522 61.3034C42.5522 61.3621 42.232 61.3946 41.3626 61.4272C40.7024 61.4533 39.4213 61.512 38.5128 61.5641C37.6042 61.6097 36.7806 61.6293 36.6826 61.6032C36.5911 61.5772 36.4538 61.4794 36.3819 61.3816L36.2512 61.2056L36.5257 60.4104C36.8591 59.4066 36.9702 58.657 37.0944 56.6429C37.212 54.6092 37.3427 53.612 37.9833 49.7989C38.4997 46.7158 38.7219 45.6989 38.8265 45.8945C38.8592 45.9466 39.088 46.7092 39.3429 47.5827Z" fill="white"/>
<path d="M83.064 66.1266C81.8025 66.446 79.0899 67.2673 78.9134 67.3781C78.4166 67.704 78.8284 68.3558 79.9853 69.0728C80.2533 69.2358 80.4625 69.3922 80.4494 69.4248C80.4363 69.4574 79.7566 70.3048 78.9395 71.3086L77.4492 73.1336L77.5669 73.3357L77.6845 73.5312L79.8742 73.5117C81.9528 73.4856 82.0835 73.4791 82.5215 73.3357C83.6065 72.9772 84.1229 72.5731 84.1229 72.0712C84.1229 71.7713 84.0444 71.6279 83.6523 71.1978C83.4431 70.9631 83.4039 70.8784 83.4039 70.6242C83.4039 70.3439 83.4235 70.3113 84.1882 69.5161C85.6262 68.0039 85.8877 67.3455 85.3975 66.5112C85.0184 65.8724 84.4497 65.7746 83.064 66.1266Z" fill="white"/>
<path d="M29.7801 68.1605C29.8586 68.4929 29.937 68.6494 30.1331 68.8971C30.5972 69.4772 30.5384 69.8096 29.8455 70.4875C29.5906 70.7417 29.2703 71.022 29.133 71.1132C29.0023 71.2045 28.8454 71.3674 28.7866 71.4783C28.6167 71.7911 28.7474 72.0258 29.3357 72.4951C29.8782 72.9253 30.1396 73.0622 31.4992 73.6553C32.5189 74.1051 32.7804 74.2811 32.9242 74.62C33.0091 74.8221 33.0026 74.8547 32.898 74.972C32.63 75.2653 32.447 75.3044 31.6365 75.2457C31.2247 75.2132 30.6756 75.1936 30.4273 75.2001C29.4599 75.2262 29.3749 75.4283 30.0547 76.0866C31.2704 77.2533 32.715 77.8074 34.4406 77.7487C35.1988 77.7292 35.2969 77.7096 35.6956 77.5206C36.4538 77.1686 36.8656 76.608 36.8656 75.9302C36.8656 75.3826 36.6237 75.0372 35.2642 73.6553C34.6105 72.9905 34.0092 72.3191 33.9308 72.1692C33.5647 71.4522 33.9504 71.1263 35.323 70.9764C35.8459 70.9242 35.957 70.8851 36.3231 70.6504C37.0159 70.2007 37.2905 69.7901 37.1336 69.4446C37.0094 69.1708 36.7349 69.1122 34.9831 69.0014C32.715 68.8514 31.7476 68.6624 30.7737 68.1736C30.5057 68.0367 30.3031 67.9845 30.0677 67.9845C29.7409 67.9845 29.7409 67.9845 29.7801 68.1605Z" fill="white"/>
<path d="M18.2169 73.5057L18.0273 73.5318L18.0731 74.0337C18.0992 74.3074 18.1646 74.6203 18.2234 74.7311C18.3672 75.0244 19.4653 76.0673 19.8771 76.315C20.5373 76.6996 20.9295 76.8039 21.8315 76.8365C22.7597 76.8691 23.1715 76.7974 23.7728 76.5171C24.25 76.2889 24.8383 75.774 25.0736 75.3764C25.1716 75.2134 25.2566 74.9462 25.2762 74.7376C25.3089 74.4182 25.2958 74.3661 25.152 74.2227C24.8644 73.9359 24.5376 73.8837 23.7075 73.988C22.2237 74.1705 20.7922 74.0532 19.5895 73.6556C19.0405 73.4731 18.7071 73.434 18.2169 73.5057Z" fill="white"/>
<path d="M82.2274 74.3598C81.5215 74.5032 81.26 74.5228 80.3188 74.5162L79.2272 74.5097L78.9134 74.7183C78.7435 74.8356 78.5213 75.0638 78.4167 75.2267C78.2337 75.5266 78.2337 75.5331 78.3382 75.7808C78.5539 76.3022 78.8808 76.4978 80.0181 76.7846C80.5018 76.9084 80.6129 76.9149 81.077 76.8497C82.4496 76.6477 83.3124 76.1849 83.8419 75.3701C84.0314 75.0768 84.0576 74.979 84.0576 74.601V74.1773L83.5543 74.1838C83.2732 74.1838 82.6784 74.262 82.2274 74.3598Z" fill="white"/>
<path d="M7.83027 74.5742C7.77144 75.1609 8.00021 75.6171 8.56234 76.0604C9.37285 76.6992 10.7063 76.8491 11.1965 76.3537C11.3665 76.1842 11.7194 75.6106 11.6802 75.5715C11.5037 75.3955 8.64078 74.3722 8.1963 74.3265L7.85641 74.2874L7.83027 74.5742Z" fill="white"/>
<path d="M58.0763 75.5589C57.1089 75.7545 56.4618 75.8001 55.7428 75.7088C55.3375 75.6632 55.2722 75.6763 54.9453 75.8327C54.7493 75.9305 54.5728 76.0543 54.5532 76.113C54.4747 76.315 54.697 76.8886 54.9323 77.0972C55.2656 77.3905 55.5728 77.4688 56.3441 77.4688C56.8867 77.4688 57.122 77.4362 57.4619 77.3188C58.0174 77.1298 58.4685 76.843 58.6319 76.5758C58.7757 76.3476 59.0502 75.5198 59.011 75.4286C59.0044 75.4025 58.5796 75.4612 58.0763 75.5589Z" fill="white"/>
<path d="M49.1009 76.4648C48.8786 76.4973 48.3296 76.6407 47.8851 76.7841C46.7804 77.1296 46.5778 77.1492 45.7542 76.9797C44.9045 76.7972 44.4992 76.8298 43.9044 77.1035L43.46 77.3121L43.7083 77.7814C44.009 78.3485 44.1659 78.4593 45.0483 78.7396C45.8065 78.9808 45.8523 78.9808 47.0484 78.6353C48.0943 78.3355 49.3754 77.6119 49.4408 77.286C49.4734 77.1296 49.5453 76.3865 49.5257 76.3996C49.5192 76.4061 49.3296 76.4387 49.1009 76.4648Z" fill="white"/>
</g>
<defs>
<clipPath id="clip0_118_90">
<rect width="97" height="79" fill="white"/>
</clipPath>
</defs>
</svg>
