<svg width="32" height="32" viewBox="0 0 32 32" fill="none" xmlns="http://www.w3.org/2000/svg">
<g clip-path="url(#clip0_118_80)">
<path d="M15.9723 0C7.55254 0 0.655038 6.47565 0 14.7044L8.59046 18.2472C9.31815 17.7502 10.1981 17.4607 11.1437 17.4607C11.2291 17.4607 11.3132 17.4629 11.3963 17.4675L15.217 11.9436V11.8661C15.217 8.54225 17.9282 5.83732 21.2611 5.83732C24.5939 5.83732 27.3052 8.54225 27.3052 11.8661C27.3052 15.19 24.5939 17.8961 21.2611 17.8961C21.2149 17.8961 21.17 17.8949 21.1238 17.8938L15.6748 21.7705C15.6782 21.8423 15.6806 21.9142 15.6806 21.9848C15.6806 24.4812 13.6451 26.5113 11.1437 26.5113C8.94796 26.5113 7.11085 24.9474 6.69569 22.8774L0.551247 20.3434C2.45409 27.0539 8.63543 31.9736 15.9723 31.9736C24.8246 31.9736 32 24.8151 32 15.9868C32 7.1573 24.8246 0 15.9723 0ZM10.044 24.2573L8.07542 23.4457C8.4237 24.1707 9.028 24.7771 9.82949 25.1099C11.5617 25.8303 13.5591 25.0108 14.281 23.2816C14.6304 22.4449 14.6327 21.5216 14.2868 20.6826C13.9408 19.8437 13.2869 19.1894 12.4485 18.8406C11.6147 18.4952 10.7221 18.5077 9.9379 18.803L11.9722 19.6419C13.25 20.1731 13.8543 21.6367 13.3215 22.9111C12.7899 24.1855 11.3218 24.7885 10.044 24.2573ZM25.2886 11.8662C25.2886 9.65146 23.4815 7.84818 21.2615 7.84818C19.0404 7.84818 17.2333 9.65146 17.2333 11.8662C17.2333 14.081 19.0404 15.8832 21.2615 15.8832C23.4815 15.8832 25.2886 14.081 25.2886 11.8662ZM18.2424 11.8594C18.2424 10.1929 19.5974 8.84215 21.2673 8.84215C22.9383 8.84215 24.2934 10.1929 24.2934 11.8594C24.2934 13.5259 22.9383 14.8767 21.2673 14.8767C19.5974 14.8767 18.2424 13.5259 18.2424 11.8594Z" fill="white"/>
</g>
<defs>
<clipPath id="clip0_118_80">
<rect width="32" height="32" fill="white"/>
</clipPath>
</defs>
</svg>
