<svg width="1920" height="136" viewBox="0 0 1920 136" fill="none" xmlns="http://www.w3.org/2000/svg">
<g clip-path="url(#clip0_118_59)">
<path d="M534.223 1.06667C534.223 1.73332 532.649 2.93332 530.812 3.86665C528.32 4.93332 527.533 6.13333 528.057 8.13332C528.582 10.2667 528.32 10.6667 526.221 9.99999C523.466 9.06666 522.941 10.6667 525.302 13.0667C526.483 14.2667 526.483 14.6667 525.171 14.6667C524.122 14.6667 523.728 15.4667 524.253 16.8C524.778 18.4 524.515 18.8 523.072 18.1333C521.892 17.7333 521.105 18.1333 521.105 19.3333C521.105 20.9333 520.449 20.9333 517.563 19.8667C515.07 18.9333 513.758 18.9333 513.496 19.8667C513.234 20.6667 512.447 21.0667 511.791 20.5333C509.823 19.3333 510.479 22.2667 512.578 24C513.627 24.9333 514.545 26.5333 514.545 27.6C514.545 28.9333 513.758 29.3333 512.578 28.8C511.528 28.4 509.561 27.6 508.38 27.0667C506.675 26.4 506.412 26.6667 507.068 28.5333C507.855 30.4 507.462 30.6667 505.363 30C503.264 29.3333 502.87 29.7333 503.133 31.8667C503.395 33.4667 504.313 35.4667 505.1 36.2667C507.33 38.5333 507.068 40.1333 504.707 39.2C503.657 38.6667 502.739 39.0667 502.739 40C502.739 40.9333 501.69 41.3333 500.115 40.9333C496.836 40.1333 496.705 42 499.722 43.8667C503.526 46 500.771 46.9333 495.393 45.4667C489.359 43.7333 488.571 44.2667 492.113 47.8667C493.556 49.3333 494.475 51.4667 494.081 52.5333C493.294 54.5333 496.18 56.6667 503.395 59.6L507.33 61.0667L502.739 61.2C500.247 61.2 496.049 60.8 493.425 60.1333C490.277 59.4667 488.047 59.6 486.604 60.6667C483.455 63.0667 483.718 63.6 489.883 66.8C494.475 69.2 494.999 69.8667 493.163 70.9333C491.851 71.6 491.326 72.8 491.72 73.6C492.376 74.5333 491.72 74.8 489.883 74.4C488.178 73.8667 486.866 74.4 486.473 75.6C486.079 76.6667 484.636 77.3333 483.455 77.0667C482.144 76.9333 480.307 77.2 479.389 77.7333C477.683 78.9333 472.567 77.7333 472.567 76.2667C472.567 75.7333 474.666 74.1333 477.159 72.8C482.275 70 483.062 68 479.258 68C476.634 68 474.535 64.5333 476.372 63.3333C477.683 62.6667 475.191 56 473.617 56C473.223 56 473.092 54.8 473.486 53.3333C474.01 51.2 473.748 50.8 472.043 51.4667C468.894 52.6667 469.55 49.8667 472.83 47.4667C474.404 46.2667 475.322 45.3333 474.666 45.3333C474.01 45.3333 474.273 44.4 475.191 43.3333C476.24 42.1333 476.372 41.3333 475.453 41.3333C474.666 41.3333 473.748 41.8667 473.354 42.4C472.305 44.1333 464.959 44.1333 463.909 42.4C463.516 41.7333 463.778 40.4 464.565 39.6C465.483 38.6667 466.795 38.9333 468.763 40.8C471.124 42.8 471.518 42.9333 470.862 41.2C470.468 40 470.862 38.2667 471.649 37.4667C472.83 36.1333 472.436 36 469.812 36.6667C466.926 37.3333 466.271 36.9333 465.615 34.4C465.09 32.6667 465.352 31.0667 466.008 30.9333C466.795 30.6667 467.058 29.8667 466.533 29.2C466.139 28.5333 466.271 28 466.926 28.1333C469.681 28.6667 471.255 27.8667 471.255 26C471.255 24.9333 470.6 24 469.812 24C469.156 24 468.763 23.4667 469.156 22.8C469.55 22.2667 468.763 20.6667 467.451 19.4667C465.09 17.2 464.827 17.2 463.384 19.8667C462.597 21.4667 462.466 22.6667 462.991 22.6667C463.516 22.6667 462.991 23.3333 461.81 24.1333C460.498 24.8 459.449 26.4 459.449 27.4667C459.449 29.0667 458.4 29.2 454.726 28.5333C449.217 27.4667 447.249 29.4667 449.086 34.2667C450.135 37.0667 450.004 37.2 447.774 36.1333C445.806 34.9333 445.413 35.2 445.806 37.7333C445.937 39.3333 446.593 41.8667 447.118 43.2C447.905 45.3333 447.643 45.6 445.937 44.9333C444.757 44.4 442.658 43.6 441.477 43.0667C439.903 42.4 439.509 42.8 440.165 44.4C440.559 45.6 440.428 46.6667 439.772 46.6667C437.935 46.6667 438.853 51.2 441.084 54.2667C442.92 56.5333 442.92 56.5333 440.559 54.6667C438.591 53.0667 437.935 53.0667 437.542 54.4C437.148 55.2 436.23 55.6 435.443 55.0667C434.524 54.6667 435.049 55.4667 436.361 57.0667C437.804 58.6667 439.903 60 441.084 60C442.395 60 444.757 61.2 446.462 62.8L449.61 65.4667L445.675 64.5333C443.576 64.1333 440.034 63.4667 438.066 63.2C435.967 62.9333 433.737 62.4 433.081 62C432.426 61.4667 431.901 61.6 431.901 62C431.901 63.2 436.23 67.4667 436.755 66.9333C437.017 66.6667 437.673 66.6667 438.198 67.0667C438.722 67.3333 438.329 67.3333 437.542 67.2C436.623 66.9333 435.836 67.3333 435.836 68.1333C435.836 68.8 434.393 69.0667 432.557 68.5333C427.441 67.2 428.752 69.2 434.918 72C437.935 73.3333 439.509 74.5333 438.46 74.5333C437.41 74.5333 434.131 73.4667 431.245 72L425.998 69.4667L425.079 72.9333C424.555 74.9333 424.423 76.9333 424.817 77.6C426.522 80.4 422.456 78.1333 418.914 74.2667C415.241 70.4 414.191 67.4667 414.716 62.9333C415.109 60.2667 412.617 61.0667 407.894 65.3333C405.402 67.4667 402.647 69.3333 401.86 69.3333C400.942 69.3333 398.974 70.2667 397.138 71.4667C394.645 73.2 393.464 73.2 390.972 71.8667C388.086 70.2667 388.086 70.2667 390.578 69.2C392.021 68.6667 394.514 68.1333 396.219 68.1333C398.187 68 399.761 66.5333 401.335 63.3333C404.221 57.2 402.778 56.1333 397.793 60.5333C394.776 63.0667 392.809 63.7333 390.447 63.2C388.611 62.6667 387.299 62.9333 387.299 63.7333C387.299 64.6667 385.856 64.6667 382.708 63.8667C380.215 63.0667 377.46 62.9333 376.804 63.3333C376.148 63.7333 374.443 63.4667 373 62.8C370.901 61.6 370.376 61.8667 369.983 64.6667C369.589 66.5333 370.114 69.0667 371.164 70.5333C372.738 72.9333 372.607 73.3333 370.245 74.6667C368.802 75.4667 367.622 75.6 367.622 74.8C367.622 74.1333 366.572 73.8667 365.391 74.1333C361.981 75.0667 354.897 68.8 356.602 66.5333C358.701 63.7333 358.57 58.4 356.471 55.4667C354.635 52.9333 354.503 52.9333 352.142 55.7333C350.699 57.3333 349.125 58.1333 348.6 57.6C347.682 56.8 347.944 58.2667 350.043 65.3333C350.961 68.2667 349.256 68.8 345.321 66.6667C343.353 65.6 342.697 66.1333 341.385 69.4667C340.336 71.8667 339.024 73.2 337.974 72.8C335.088 71.6 335.876 75.3333 339.417 79.2C341.123 81.0667 341.91 82.6667 341.254 82.6667C340.467 82.6667 340.205 83.2 340.729 83.8667C342.041 86.1333 339.286 86.6667 336.663 84.6667C335.351 83.6 333.121 82.6667 331.94 82.6667C330.759 82.6667 327.873 81.0667 325.512 79.0667C322.757 76.6667 321.052 75.8667 320.658 77.0667C320.396 77.8667 319.347 78.6667 318.297 78.6667C317.248 78.6667 316.461 79.6 316.461 80.6667C316.461 81.7333 315.542 82.6667 314.362 82.6667C312.919 82.6667 312.525 83.4667 313.181 85.3333C313.968 87.7333 312.787 88.6667 309.639 88.1333C308.065 87.8667 308.327 90.4 309.901 91.3333C312.132 92.8 311.344 94.6667 308.458 94.6667C307.015 94.6667 306.097 95.2 306.491 95.8667C307.015 96.5333 306.491 97.4667 305.704 97.7333C304.392 98.2667 304.523 98.8 305.966 99.8667C309.508 102.4 304.392 101.6 298.751 98.6667C295.865 97.2 292.848 96 291.93 96C290.487 96 290.487 95.4667 291.798 93.2C293.241 90.9333 294.422 90.5333 299.145 91.2C302.686 91.7333 304.523 91.4667 303.998 90.6667C303.605 89.8667 302.293 89.3333 301.375 89.3333C300.194 89.3333 299.8 88.5333 300.194 87.3333C300.719 86 300.194 85.3333 298.62 85.6C297.177 85.6 294.947 85.6 293.504 85.6C291.011 85.3333 291.011 85.2 293.766 83.3333C298.226 80.1333 297.046 75.3333 292.061 75.8667C291.274 76 290.88 74.4 291.274 72.1333C291.93 66.9333 290.093 66.1333 285.895 70.1333C283.927 72 281.829 73.2 281.304 72.8C279.992 72 275.401 75.6 276.188 76.9333C276.45 77.4667 276.319 79.2 275.794 80.8C274.876 83.2 273.958 83.4667 269.104 82.8C262.545 81.8667 260.839 78.6667 265.562 76.2667C268.448 74.9333 268.448 74.8 265.824 74.8C262.151 74.6667 261.102 73.3333 262.938 71.0667C264.119 69.6 263.857 69.0667 261.495 68.4C259.396 67.8667 258.74 66.9333 259.134 65.2C259.528 63.8667 259.003 61.7333 258.085 60.5333C256.642 58.4 256.379 58.4 253.887 60.9333C252.575 62.2667 250.738 63.3333 249.951 63.0667C247.852 62.2667 246.278 70.5333 248.115 72.4C250.607 74.9333 249.689 76.5333 247.196 74.2667C243.786 71.2 242.474 71.4667 243.523 74.9333C245.753 82.4 245.622 82.6667 241.556 82.6667C239.194 82.6667 237.883 83.2 238.407 84C238.801 84.6667 238.67 85.3333 237.883 85.3333C237.227 85.3333 236.177 84.6667 235.784 84C235.259 83.2 234.341 82.9333 233.685 83.4667C232.898 83.8667 233.291 85.0667 234.734 86.2667C236.44 87.6 236.702 88.4 235.521 88.8C234.472 89.3333 234.078 90.8 234.603 92.9333C235.39 96.1333 235.259 96.4 232.373 95.6C230.668 95.0667 228.831 94.6667 228.437 94.6667C227.913 94.6667 227.126 93.2 226.732 91.3333C226.339 89.6 224.24 87.2 222.272 86.1333L218.73 84.1333L223.321 84L227.913 83.7333L224.24 82.1333C222.272 81.2 221.091 80.1333 221.485 79.6C222.01 79.0667 221.485 78.6667 220.304 78.6667C218.992 78.6667 218.205 78.2667 218.205 77.6C218.73 74.1333 217.812 70.6667 216.369 70.6667C214.139 70.6667 208.104 77.0667 209.285 78.1333C210.203 79.0667 206.924 82.8 205.349 82.5333C202.726 82.1333 202.07 82.8 203.644 84.6667C205.481 86.8 204.431 89.3333 201.545 89.3333C200.496 89.3333 199.709 89.8667 199.709 90.5333C199.709 91.2 197.61 92.5333 195.117 93.3333C192.625 94.1333 190.526 95.3333 190.526 96C190.526 97.6 194.461 98.8 196.167 97.7333C197.085 97.3333 197.347 97.3333 196.823 98C196.298 98.5333 196.429 99.8667 197.347 100.933C198.528 102.4 198.266 102.933 196.035 103.6C194.461 104 193.149 104.933 193.149 105.6C193.149 106.267 191.575 108.267 189.608 110.133C186.59 112.933 186.328 113.733 187.902 114.667C189.608 115.733 189.476 116 187.509 116C186.197 116 184.623 117.467 184.098 119.2C183.18 121.467 181.474 122.533 177.801 123.067C170.848 124.267 169.274 124.267 170.193 122.667C170.586 122 171.767 121.733 172.685 122.133C173.734 122.533 174.915 122.267 175.44 121.467C175.833 120.667 177.539 120 178.982 120C180.556 120 181.343 119.6 180.95 119.067C180.425 118.667 180.687 117.467 181.343 116.533C182.393 115.333 181.474 115.333 177.801 116.8C170.98 119.2 165.601 119.2 165.601 116.667C165.601 115.6 164.945 114.667 164.027 114.667C163.24 114.667 163.633 113.333 165.076 111.733C167.569 108.933 167.569 108.933 164.683 109.733C156.943 112 155.763 112.267 157.599 110.933C158.649 110.133 159.698 108.533 159.829 107.333C159.96 106.133 161.272 103.867 162.584 102.4C164.945 99.6 164.945 99.6 161.01 100.533L157.074 101.333L160.616 98.1333C165.47 93.7333 165.208 92.9333 159.436 93.8667C156.156 94.4 155.107 94.4 156.287 93.4667C157.73 92.5333 157.468 91.8667 154.975 90.5333C151.958 88.8 151.171 88.5333 147.629 88.1333C146.711 88.1333 145.924 86.9333 145.793 85.6C145.793 83.8667 145.399 84 144.35 86.2667C143.563 88 142.382 89.3333 141.726 89.3333C141.07 89.3333 140.939 90 141.464 90.8C142.12 91.8667 141.595 91.8667 139.627 90.8C135.823 88.8 134.773 88.9333 136.741 91.3333C138.053 92.9333 137.922 93.4667 136.216 94.1333C135.036 94.5333 133.199 94.2667 132.15 93.3333C130.969 92.4 128.608 92 126.247 92.4C123.098 93.0667 122.574 92.9333 123.229 91.0667C123.885 89.4667 123.492 89.0667 121.918 89.7333C119.032 90.9333 116.146 91.7333 117.457 90.9333C117.982 90.6667 119.032 89.2 119.819 87.8667C121.131 85.2 121.131 85.2 116.801 87.4667L112.472 89.7333L116.277 86C119.163 83.3333 119.687 82.1333 118.376 81.3333C117.457 80.8 117.195 79.6 117.72 78.6667C118.507 77.4667 117.851 77.3333 115.621 78C112.866 78.9333 112.735 78.8 114.309 76.8C116.67 74 115.49 72.9333 110.374 73.0667C105.913 73.2 103.552 74.6667 106.307 75.6C107.094 76 107.881 77.2 107.881 78.2667C107.881 80 107.488 80 105.913 78.6667C104.339 77.3333 103.946 77.3333 103.946 78.6667C103.946 79.6 102.896 80 101.322 79.6C99.0919 79.0667 98.9607 79.2 100.273 81.7333C101.06 83.3333 102.371 85.0667 103.159 85.6C104.077 86.2667 104.077 86.6667 103.29 86.6667C102.503 86.6667 100.535 85.7333 98.9607 84.5333L95.9435 82.4L98.0425 87.4667C100.404 93.2 100.01 94.1333 96.2059 92.1333C93.9758 90.8 93.5823 90.9333 94.3694 92.8C94.8941 94.4 94.7629 94.8 93.7134 94.1333C92.9264 93.6 91.0898 93.8667 89.6468 94.6667C87.9414 95.6 86.7608 95.6 86.2361 94.6667C85.7113 93.7333 84.6619 93.7333 82.9565 94.6667C79.5458 96.5333 76.6598 91.8667 79.677 89.3333C81.5135 87.8667 81.3823 87.4667 78.7587 86.1333C76.791 85.2 75.7415 83.2 75.4791 80.8C75.2168 76.9333 72.9867 74.4 70.6254 75.0667C69.9695 75.3333 68.3953 77.4667 67.0835 79.8667C65.9028 82.1333 64.3287 84 63.6728 83.7333C63.148 83.4667 62.4921 85.3333 62.2298 87.6C61.9674 90 61.3115 92 60.5244 92C59.8685 92 59.3437 91.3333 59.3437 90.6667C59.3437 89.8667 58.4255 89.3333 57.376 89.3333C55.1459 89.3333 55.933 92.6667 59.0814 96.2667C60.1308 97.6 60.5244 98.6667 59.7373 98.6667C57.9007 98.6667 52.7846 92.2667 52.7846 90C52.7846 88.9333 52.1287 88 51.2105 88C50.0298 88 50.0298 87.6 51.2105 86.4C53.1782 84.4 53.3094 82.1333 51.4728 83.3333C50.8169 83.7333 50.161 83.3333 50.161 82.2667C50.161 81.2 49.1115 80.4 47.9309 80.5333C46.3567 80.5333 45.4384 79.6 45.1761 77.7333C44.7825 74.8 44.6514 74.8 41.2406 77.0667C39.0105 78.5333 38.2234 78.6667 38.8793 77.4667C39.5353 76.4 39.2729 75.2 38.2234 74.5333C36.9116 73.7333 36.7804 73.3333 38.0923 73.3333C38.8793 73.3333 39.6664 72.6667 39.6664 71.8667C39.6664 71.2 38.8793 70.9333 38.0923 71.4667C36.7804 72.2667 36.7804 72 38.0923 70.4C39.5353 68.5333 39.2729 67.7333 36.1245 64.5333C33.1073 61.4667 32.4514 61.2 32.0579 63.0667C31.7955 64.2667 30.7461 65.3333 29.5654 65.3333C27.4665 65.3333 22.744 70.4 22.6128 72.9333C22.6128 73.7333 21.8257 74.8 21.0386 75.2C19.5956 75.8667 19.5956 76.1333 21.0386 76.8C21.8257 77.2 22.6128 78.1333 22.6128 78.9333C22.6128 79.7333 21.1698 79.3333 19.3332 78.1333C15.1354 75.3333 15.0042 75.4667 15.6601 79.2C16.0537 80.9333 15.5289 82.8 14.7418 83.3333C12.7741 84.5333 10.8064 81.6 11.7247 79.0667C12.1182 78.1333 11.5935 77.3333 10.4128 77.3333C9.36338 77.3333 8.18274 76.4 7.65802 75.3333C6.73974 72.9333 2.80428 72.6667 0.574185 74.9333C-1.52473 77.0667 -1.39355 82.2667 0.705367 83.0667C1.88601 83.6 1.88601 83.8667 0.705367 83.8667C-0.606454 84 -1 90.1333 -1 110V136H964.5H1930V107.867C1930 89.2 1929.61 80.1333 1928.69 80.6667C1927.9 81.2 1927.64 82 1928.03 82.6667C1928.43 83.2 1927.77 84 1926.72 84.5333C1925.67 84.9333 1924.49 84.5333 1923.97 83.7333C1923.44 82.9333 1922 84.1333 1920.55 86.5333C1919.11 88.8 1917.54 90.6667 1916.88 90.6667C1916.36 90.6667 1915.57 92.5333 1915.05 94.8C1914.52 97.8667 1913.73 98.8 1912.16 98.1333C1910.58 97.4667 1910.32 98.1333 1910.72 101.2C1911.24 104.4 1910.98 104.933 1908.88 104.4C1907.04 103.867 1906.52 104.267 1907.04 105.6C1907.44 106.667 1906.91 108.267 1905.86 109.2C1904.03 110.8 1904.03 111.2 1905.86 112.933C1908.35 115.467 1907.17 116.933 1904.42 114.667C1903.37 113.733 1901.53 113.333 1900.48 113.867C1899.3 114.267 1898.78 114.133 1899.17 113.333C1899.57 112.533 1899.43 112 1898.78 112C1897.99 112 1897.86 110.133 1898.52 107.2C1899.7 102.133 1899.04 98.2667 1897.2 99.3333C1896.55 99.7333 1895.24 99.0667 1894.06 98C1892.22 96.1333 1891.83 96.1333 1890.38 98.6667C1887.89 102.667 1886.84 101.867 1887.63 96.6667C1888.15 93.4667 1887.89 92 1886.84 92C1885.79 92 1885.53 90.9333 1886.05 89.4667C1886.58 87.7333 1886.05 86.8 1883.82 86.2667C1882.25 85.7333 1881.33 85.0667 1881.72 84.6667C1882.25 84.1333 1881.99 82 1881.2 79.8667C1879.89 75.8667 1879.89 75.8667 1877.4 78.5333C1875.95 80 1874.9 81.8667 1874.9 82.6667C1874.9 83.3333 1874.38 84 1873.59 84C1871.89 84 1867.03 88.2667 1867.03 89.7333C1867.03 92 1863.62 94 1859.03 94.4C1854.57 94.6667 1854.31 94.5333 1854.96 91.3333C1855.49 88.2667 1855.09 88 1850.77 88C1846.31 88 1846.17 87.8667 1846.96 84C1847.36 81.4667 1847.09 80 1846.17 80C1845.39 80 1844.73 79.2 1844.73 78.1333C1844.73 76.8 1843.81 76.5333 1841.85 77.0667C1839.75 77.6 1839.35 77.3333 1840.14 75.8667C1841.06 74.4 1840.93 74.2667 1839.35 75.6C1837.78 76.9333 1837.39 76.2667 1837.25 71.0667C1836.86 64.2667 1836.73 64 1833.32 63.3333C1832.01 63.2 1831.09 62.2667 1831.35 61.4667C1831.48 60.6667 1830.83 60 1829.78 60C1826.89 60 1826.23 56.4 1829.12 55.6C1833.45 54.4 1832.01 52 1827.42 52.8C1823.48 53.4667 1823.35 53.3333 1825.45 51.6C1828.6 48.9333 1828.2 46.9333 1824.53 47.6C1821.77 48.1333 1821.25 47.6 1820.46 42.8C1819.94 39.4667 1818.89 37.3333 1817.71 37.3333C1816.66 37.3333 1815.87 36.4 1815.87 35.3333C1815.87 32.5333 1813.25 32.8 1813.12 35.6C1812.99 36.9333 1812.99 38.4 1813.12 38.9333C1813.12 39.6 1812.07 40 1810.49 40C1809.05 40 1808.26 40.6667 1808.66 41.3333C1809.05 42.1333 1808.79 42.6667 1808 42.6667C1807.21 42.6667 1806.95 43.2 1807.34 44C1807.74 44.8 1807.21 44.9333 1806.16 44.5333C1803.67 43.6 1803.41 46.6667 1805.77 49.2C1807.08 50.6667 1807.08 50.9333 1805.77 50.1333C1804.85 49.6 1804.07 49.7333 1804.07 50.2667C1804.07 50.9333 1802.1 52.1333 1799.6 53.0667C1795.93 54.4 1795.41 55.2 1795.93 58C1796.19 60 1795.93 61.3333 1795.01 61.3333C1794.23 61.3333 1793.57 63.0667 1793.57 65.3333C1793.57 68.4 1793.05 69.3333 1790.95 69.3333C1788.72 69.3333 1788.45 70 1788.85 72.8C1789.37 75.8667 1789.11 76.2667 1786.49 75.7333C1784.78 75.3333 1783.47 75.7333 1783.47 76.5333C1783.47 80.6667 1782.81 82.1333 1780.06 83.4667C1776.39 85.2 1771.93 81.7333 1773.89 78.6667C1775.73 75.7333 1775.47 72.9333 1773.37 73.7333C1772.32 74.1333 1771.27 73.4667 1770.88 71.7333C1769.83 67.8667 1766.94 69.4667 1765.1 74.8C1764.19 77.3333 1763.53 78.6667 1763.4 78C1763.4 77.2 1762.74 77.7333 1761.96 79.0667C1761.3 80.2667 1761.04 82.1333 1761.69 83.0667C1762.22 83.8667 1761.04 83.6 1759.07 82.2667C1757.23 81.0667 1755.4 80 1755.27 80C1755 80 1753.69 82 1752.38 84.5333C1751.07 87.0667 1748.84 89.4667 1747.39 89.8667C1745.3 90.4 1744.9 91.2 1745.56 93.8667C1746.35 96.9333 1745.95 97.3333 1742.93 97.3333C1739.92 97.3333 1735.85 94.6667 1735.85 92.6667C1735.85 90 1729.68 84 1726.8 83.8667C1723.52 83.8667 1723.52 83.7333 1726.14 82.6667C1729.68 81.3333 1731.13 79.2 1729.42 78C1728.64 77.6 1728.37 76.4 1728.77 75.4667C1729.16 74.5333 1728.5 72.8 1727.32 71.6C1725.36 69.4667 1726.8 67.0667 1729.16 68.5333C1729.68 68.9333 1731.39 68.4 1732.7 67.3333C1735.06 65.4667 1735.06 65.4667 1732.18 65.3333C1730.47 65.3333 1729.55 64.8 1729.95 64C1730.34 63.2 1729.95 62.6667 1728.9 62.6667C1727.06 62.6667 1726.8 59.0667 1728.5 56.2667C1729.03 55.3333 1729.03 54.6667 1728.37 54.8C1727.85 54.9333 1726.27 54.6667 1724.96 54C1723.13 53.2 1722.99 52.6667 1724.18 51.2C1725.36 49.7333 1725.36 49.3333 1724.18 49.3333C1723.26 49.3333 1722.86 48.8 1723.26 48.1333C1723.65 47.6 1722.86 45.6 1721.42 44C1719.98 42.2667 1718.8 40.4 1718.8 39.7333C1718.8 39.0667 1718.14 38.9333 1717.35 39.4667C1716.3 40.1333 1716.3 40.6667 1717.48 41.3333C1718.53 42 1718.01 42.5333 1716.17 43.0667C1714.21 43.6 1713.42 44.5333 1713.94 46C1714.6 47.6 1714.07 47.8667 1711.19 47.0667C1707.91 46.2667 1707.78 46.4 1709.61 48.6667C1711.45 50.9333 1711.32 51.0667 1707.65 50.2667L1703.71 49.3333L1706.73 51.8667C1710.01 54.6667 1710.4 56.1333 1708.04 55.7333C1707.12 55.4667 1706.47 56.1333 1706.73 57.0667C1706.99 58.9333 1704.89 59.2 1703.84 57.4667C1703.05 56.2667 1697.81 56.5333 1690.33 58.1333C1685.35 59.2 1684.82 57.8667 1688.62 52.9333C1691.64 49.0667 1692.04 47.3333 1689.67 48.8C1688.76 49.3333 1689.15 48.4 1690.46 46.8C1692.95 44 1692.95 44 1690.59 44.8C1688.76 45.6 1688.49 45.3333 1689.28 44C1690.07 42.6667 1689.67 42.4 1687.44 43.0667C1685.08 43.6 1684.69 43.3333 1685.35 41.2C1685.87 39.8667 1685.61 38.6667 1685.08 38.6667C1684.43 38.6667 1682.46 37.3333 1680.75 35.6C1678.92 34 1677.08 32.8 1676.56 33.0667C1675.9 33.2 1675.51 32.6667 1675.51 32C1675.51 31.2 1674.59 28.5333 1673.54 25.8667C1671.96 21.8667 1671.31 21.3333 1669.08 22.5333C1666.98 23.7333 1666.72 23.6 1667.24 21.4667C1667.64 20 1666.59 17.7333 1664.49 15.6C1661.6 12.6667 1661.08 12.5333 1660.42 14.5333C1660.16 15.7333 1657.67 17.8667 1655.17 19.2C1651.37 21.3333 1650.71 22.2667 1651.37 24.9333C1652.03 27.3333 1651.76 27.8667 1650.06 27.2C1648.48 26.6667 1647.96 27.2 1647.96 29.2C1647.96 32.1333 1647.04 32.6667 1644.42 30.9333C1643.37 30.2667 1643.24 29.2 1644.02 28C1645.86 25.0667 1645.6 24 1642.84 24C1641.01 24 1640.61 23.2 1641.14 20.5333C1641.66 17.4667 1641.4 17.2 1638.91 18C1636.28 18.8 1636.15 18.5333 1636.94 15.3333C1637.73 12.4 1637.46 11.8667 1635.36 12.1333C1633.92 12.4 1632.09 12.1333 1631.3 11.6C1628.67 9.99999 1621.46 14.8 1622.25 17.6C1622.64 19.3333 1621.98 20 1620.15 20C1617.92 20 1617.79 20.4 1619.1 22C1620.28 23.3333 1620.28 24 1619.23 24C1618.44 24 1617.79 24.9333 1617.79 26.1333C1617.79 27.2 1617.26 27.7333 1616.47 27.3333C1615.82 26.9333 1615.16 27.4667 1615.16 28.6667C1615.16 30 1614.51 30.6667 1613.59 30.2667C1612.67 29.8667 1610.83 29.2 1609.65 28.6667C1608.21 28.1333 1607.29 28.2667 1607.29 29.3333C1607.29 30.1333 1606.77 30.4 1605.98 30C1603.88 28.6667 1604.41 31.4667 1606.64 33.3333C1607.69 34.2667 1608.6 35.8667 1608.6 36.9333C1608.6 38.4 1607.69 38.6667 1604.41 37.8667C1600.34 37.0667 1600.21 37.2 1602.04 39.3333C1603.88 41.6 1603.75 41.6 1601.13 40.2667C1599.55 39.3333 1597.98 38.6667 1597.45 38.6667C1596.01 38.6667 1598.5 46 1600.6 47.7333C1602.44 49.3333 1602.31 49.4667 1599.68 48.8C1597.45 48.4 1596.8 48.6667 1597.32 50C1597.85 51.4667 1597.32 51.6 1594.83 50.6667C1591.03 49.2 1590.63 50.1333 1593.78 53.7333C1596.01 56.2667 1596.01 56.2667 1589.58 55.3333C1583.68 54.5333 1583.29 54.5333 1585.52 56.2667C1586.83 57.3333 1588.01 59.6 1588.14 61.2C1588.27 63.3333 1589.84 65.2 1593.52 67.2C1596.4 68.6667 1599.03 70.1333 1599.29 70.4C1601.52 71.6 1597.45 71.4667 1590.5 70.1333C1583.68 68.6667 1582.37 68.6667 1582.37 70.1333C1582.37 71.2 1581.58 71.6 1580.27 71.0667C1576.6 69.6 1578.83 73.3333 1583.02 75.7333C1585.25 76.9333 1587.22 78.1333 1587.48 78.2667C1587.75 78.5333 1587.35 79.4667 1586.57 80.4C1585.65 81.4667 1585.38 82.6667 1585.91 83.0667C1586.3 83.6 1585.38 84 1583.81 84C1582.24 84 1581.32 84.5333 1581.71 85.3333C1582.11 86 1581.71 86.6667 1580.66 86.6667C1578.43 86.6667 1576.73 81.7333 1578.56 80.5333C1580.53 79.3333 1579.88 76.9333 1577.78 77.8667C1576.73 78.2667 1575.81 78 1575.81 77.2C1575.81 76.4 1574.63 76.1333 1573.18 76.6667C1569.64 77.8667 1569.77 75.0667 1573.45 71.8667C1576.07 69.4667 1576.07 69.3333 1573.71 69.3333C1571.61 69.3333 1571.48 69.0667 1573.18 68C1574.5 67.2 1574.63 66.6667 1573.45 66.6667C1571.61 66.6667 1571.87 63.8667 1573.84 62.2667C1574.63 61.6 1574.1 61.4667 1572.66 61.8667C1569.64 62.9333 1564.4 58.8 1566.89 57.2C1569.12 55.8667 1569.51 51.6 1567.28 52.5333C1566.36 52.8 1565.31 52 1564.92 50.5333C1564.53 49.2 1564.79 48 1565.44 48C1566.1 48 1566.63 47.4667 1566.63 46.8C1566.63 46.2667 1565.18 46 1563.48 46.2667C1561.25 46.8 1560.2 46.2667 1559.67 44.1333C1559.28 42.5333 1559.54 41.3333 1560.33 41.3333C1560.98 41.3333 1561.12 40.8 1560.72 40C1560.33 39.3333 1560.72 38.6667 1561.77 38.6667C1562.82 38.6667 1564.4 37.7333 1565.31 36.6667C1566.63 35.0667 1566.49 34.5333 1564.79 33.8667C1563.61 33.4667 1562.95 32.5333 1563.35 31.8667C1563.74 31.3333 1562.82 30.1333 1561.25 29.2C1559.02 28 1558.23 28.1333 1557.31 29.4667C1556.79 30.4 1556.52 31.6 1556.92 32.1333C1557.18 32.6667 1556.52 33.4667 1555.34 33.8667C1553.9 34.4 1553.51 35.6 1553.9 37.4667C1554.56 39.8667 1554.16 40.1333 1551.8 39.3333C1543.01 36.5333 1542.75 36.6667 1543.14 41.4667C1543.54 44.8 1543.14 45.8667 1541.83 45.6C1540.52 45.3333 1540.26 46.4 1540.78 50C1541.31 53.4667 1541.05 54.6667 1539.73 54.6667C1538.68 54.6667 1537.5 54.1333 1537.11 53.3333C1535.8 51.2 1533.44 51.7333 1534.35 54C1534.75 55.0667 1534.49 56 1533.83 56C1531.99 56 1532.91 61.8667 1535.14 63.7333C1536.85 65.2 1536.72 65.3333 1534.22 64.1333C1532.12 63.0667 1531.21 63.0667 1530.68 64.4C1530.03 65.6 1529.76 65.6 1529.11 64.2667C1528.06 62 1524.65 62.2667 1524.65 64.5333C1524.65 65.6 1523.07 67.6 1521.11 69.0667C1518.48 70.9333 1517.56 72.8 1517.56 76.5333C1517.43 80.2667 1517.04 81.2 1515.46 80.5333C1514.42 80.1333 1512.45 79.3333 1511.27 79.0667C1509.04 78.4 1508.25 76.2667 1508.77 72.4C1509.04 70.1333 1508.12 70.2667 1504.31 72.8C1501.82 74.4 1500.64 74.6667 1499.33 73.4667C1498.28 72.6667 1497.1 72.4 1496.57 72.9333C1496.05 73.4667 1496.18 72.2667 1496.97 70.2667C1498.8 65.4667 1496.18 65.3333 1491.72 70.1333C1489.36 72.6667 1487.79 73.3333 1485.03 72.8C1482.93 72.4 1481.36 72.6667 1481.36 73.3333C1481.36 75.2 1476.5 75.0667 1475.32 73.2C1474.93 72.4 1473.36 72.1333 1471.78 72.5333C1470.34 72.9333 1467.98 72.6667 1466.66 71.8667C1464.57 70.6667 1464.3 71.0667 1464.3 75.0667C1464.3 77.4667 1464.96 80.1333 1465.62 80.8C1466.66 81.8667 1466.4 82.8 1464.83 84.1333C1463.12 85.6 1462.47 85.6 1462.07 84.2667C1461.68 83.4667 1460.89 83.0667 1460.11 83.4667C1458.79 84.4 1449.87 80 1449.87 78.4C1449.87 77.8667 1450.4 77.2 1451.05 76.6667C1453.02 75.6 1452.37 67.6 1450.27 65.2C1448.56 63.0667 1448.17 63.2 1445.15 66.2667C1442.66 68.8 1442.27 70 1443.31 72C1445.54 76.2667 1445.02 78.6667 1441.87 77.6C1440.43 76.9333 1439.12 76 1438.99 75.3333C1438.72 73.4667 1435.05 69.3333 1433.87 69.3333C1432.16 69.3333 1427.7 74.4 1428.62 75.2C1429.02 75.6 1428.62 76 1427.7 76C1426.65 76 1426.26 76.8 1426.79 78.1333C1427.44 79.8667 1426.92 80.1333 1424.42 79.7333C1422.06 79.2 1420.75 79.8667 1419.57 82.2667C1418.65 83.8667 1417.47 85.3333 1416.68 85.3333C1414.45 85.3333 1407.24 94.1333 1407.63 96.4C1407.9 97.7333 1407.63 98.6667 1406.98 98.5333C1406.45 98.4 1405.01 98.4 1404.09 98.5333C1402.52 98.6667 1402.52 99.0667 1403.7 100.267C1406.06 102.667 1405.67 104 1402.65 104C1401.21 104 1400.16 104.533 1400.29 105.2C1400.55 105.867 1400.16 106.267 1399.37 106.133C1397.79 106 1397.53 102.8 1398.84 100.133C1399.89 97.8667 1397.14 94.6667 1394.12 94.6667C1392.94 94.6667 1392.42 94 1392.81 93.3333C1393.2 92.5333 1392.68 92 1391.63 92C1390.45 92 1389.53 92.5333 1389.53 93.3333C1389.53 94 1388.87 94.6667 1387.96 94.6667C1387.17 94.6667 1387.43 93.7333 1388.61 92.2667C1391.63 88.9333 1391.5 85.3333 1388.35 85.3333C1386.38 85.3333 1385.59 84.2667 1385.33 81.0667C1385.07 77.8667 1384.28 76.8 1382.84 77.0667C1381.53 77.2 1380.35 76.2667 1379.95 74.6667C1379.17 71.6 1376.41 71.0667 1376.41 74C1376.41 75.0667 1375.89 76 1375.1 76C1374.44 76 1373.79 76.9333 1373.79 78C1373.79 79.2 1373 79.6 1371.82 79.2C1370.51 78.6667 1369.85 79.2 1369.85 80.8C1369.85 82 1369.46 82.6667 1368.93 82.2667C1368.41 81.7333 1367.36 83.0667 1366.44 85.3333C1365 88.5333 1363.95 89.3333 1360.67 89.3333C1356.08 89.3333 1355.42 87.4667 1359.75 86C1362.64 84.9333 1362.64 84.9333 1359.36 84.4C1355.29 83.6 1352.67 81.3333 1355.95 81.3333C1357.26 81.3333 1358.05 80.5333 1357.78 79.7333C1357.39 78.8 1356.34 78 1355.29 78C1354.24 78 1353.45 76.5333 1353.32 74.2667C1353.19 68.8 1350.96 67.2 1347.95 70.2667C1345.71 72.5333 1339.29 73.3333 1337.58 71.6C1336.79 70.8 1336.01 67.2 1335.88 63.2C1335.75 61.6 1334.3 59.7333 1332.33 58.9333C1330.37 58 1329.45 56.6667 1329.97 55.7333C1330.5 54.9333 1330.37 54.6667 1329.45 55.2C1327.09 56.6667 1326.3 53.4667 1328.4 51.2C1331.55 48.1333 1331.02 47.6 1325.64 48.5333C1321.45 49.2 1321.05 49.0667 1323.55 47.8667C1325.12 47.0667 1326.56 45.2 1326.96 43.8667C1327.74 41.0667 1326.56 40.5333 1324.33 42.8C1322.23 44.9333 1320.4 43.3333 1319.48 38.2667C1318.69 34.2667 1313.97 28.4 1312.66 29.7333C1312.26 30.1333 1311.87 31.6 1311.74 33.2C1311.61 35.2 1310.95 35.7333 1309.25 35.2C1307.41 34.6667 1307.15 35.0667 1307.8 36.9333C1308.2 38.2667 1308.2 38.9333 1307.54 38.4C1306.36 37.3333 1302.95 40.4 1302.95 42.5333C1302.95 43.3333 1303.61 44 1304.26 44C1305.05 44 1304.92 44.8 1304 45.8667C1303.08 46.9333 1302.03 47.4667 1301.77 47.2C1301.51 46.9333 1300.46 47.3333 1299.41 48.1333C1298.49 48.9333 1297.7 49.2 1297.7 48.8C1297.7 48.2667 1296.92 48.6667 1296 49.6C1294.95 50.5333 1294.42 52.2667 1294.69 53.4667C1295.08 54.6667 1294.69 56.1333 1293.9 56.5333C1293.11 57.0667 1292.46 59.2 1292.46 61.4667C1292.46 64 1291.8 65.3333 1290.49 65.3333C1289.18 65.3333 1288.52 66.6667 1288.52 68.8C1288.52 71.6 1287.99 72.1333 1285.9 71.6C1284.19 71.2 1283.27 71.6 1283.27 72.8C1283.27 73.8667 1281.7 76.2667 1279.86 78C1276.71 80.9333 1276.45 81.0667 1274.22 78.9333C1272.65 77.3333 1272.25 76 1273.04 74.4C1274.61 71.2 1274.35 69.3333 1272.25 69.3333C1271.33 69.3333 1270.15 68 1269.76 66.4C1269.1 64 1268.58 63.8667 1267.01 65.2C1265.96 66.1333 1264.64 68.1333 1264.12 69.7333C1263.6 71.3333 1262.41 73.3333 1261.5 74.4C1260.45 75.3333 1259.92 76.6667 1260.18 77.2C1260.58 77.7333 1260.05 78.2667 1259 78.2667C1257.95 78.2667 1257.04 77.7333 1257.04 77.0667C1257.04 74.2667 1253.49 76.5333 1251.26 80.6667C1249.82 83.2 1248.51 85.0667 1248.12 84.8C1247.85 84.4 1246.8 84.9333 1245.89 85.8667C1244.7 87.0667 1244.31 89.4667 1244.84 93.2C1245.62 98.9333 1243.66 100.533 1240.38 97.2C1239.2 96 1238.28 96.1333 1236.83 97.7333C1235.65 98.8 1235.26 100 1235.78 100.4C1236.97 101.067 1234.08 100.267 1231.32 99.0667C1229.49 98.4 1229.36 98.6667 1230.67 101.067C1232.5 104.533 1230.41 104.933 1224.9 102.4C1222.14 101.2 1220.83 101.2 1218.73 102.533C1216.37 104 1216.24 103.867 1217.03 101.333C1217.81 98.8 1217.68 98.5333 1215.32 99.8667C1211.38 102 1210.6 101.6 1213.22 99.0667C1215.98 96.2667 1213.75 95.2 1209.55 97.4667C1207.19 98.6667 1207.32 98.2667 1210.47 95.3333C1212.7 93.0667 1213.75 91.3333 1212.83 91.0667C1211.91 90.6667 1211.65 89.6 1212.04 88.5333C1212.83 86.2667 1210.86 86.1333 1208.63 88.2667C1207.32 89.7333 1207.19 89.6 1207.84 87.6C1208.37 86.4 1209.42 85.3333 1210.2 85.3333C1213.48 85.3333 1209.68 83.8667 1204.69 83.2C1201.41 82.8 1199.32 83.0667 1199.32 84C1199.32 84.6667 1199.97 85.3333 1200.63 85.3333C1201.41 85.3333 1201.94 86.2667 1201.94 87.4667C1201.94 88.8 1201.15 89.3333 1199.97 88.8C1198.92 88.4 1198 88.6667 1198 89.2C1198 89.8667 1196.69 90.1333 1195.12 89.6C1192.36 88.9333 1192.23 89.0667 1194.07 91.4667C1195.12 92.8 1196.69 94.4 1197.35 94.9333C1198.14 95.6 1197.74 96 1196.43 96C1195.25 96 1193.28 95.0667 1192.23 93.8667C1189.61 91.3333 1189.61 92.9333 1192.1 97.3333C1194.99 102.533 1194.59 104.133 1190.79 102.667C1188.17 101.6 1187.25 101.867 1186.07 104.133C1184.89 106.533 1184.36 106.667 1181.87 105.067C1180.29 104 1177.67 103.333 1176.1 103.467C1172.82 103.6 1171.77 99.4667 1174.78 98.2667C1175.7 97.7333 1175.57 97.4667 1174.26 97.4667C1172.03 97.3333 1170.32 94.5333 1169.8 90.2667C1169.67 88.9333 1168.62 86.9333 1167.57 85.8667C1165.73 84 1165.21 84 1162.72 86.8C1161.27 88.5333 1159.96 90.6667 1159.96 91.6C1159.96 92.5333 1159.04 93.3333 1157.99 93.3333C1156.68 93.3333 1156.03 94.6667 1156.03 97.3333C1156.03 101.6 1154.85 102.267 1152.35 99.7333C1149.34 96.6667 1149.07 100 1151.96 104C1153.53 106.267 1154.32 108 1153.66 108C1151.57 108 1146.97 101.467 1146.58 97.7333C1146.19 93.6 1144.74 91.6 1141.33 90.2667C1140.02 89.8667 1138.97 88.5333 1138.97 87.3333C1138.97 84.9333 1138.32 84.8 1135.04 86.6667C1132.94 87.7333 1132.68 87.7333 1133.2 86C1133.72 84.8 1133.33 84 1132.28 84C1130.84 84 1130.84 83.6 1132.41 82.6667C1133.99 81.6 1133.99 81.3333 1132.54 81.3333C1131.23 81.3333 1131.1 80.9333 1132.28 79.4667C1133.59 78 1133.2 76.9333 1130.97 74.8C1127.82 71.8667 1125.07 70.9333 1126.51 73.3333C1126.9 74.1333 1125.99 74.6667 1124.28 74.6667C1121 74.6667 1115.88 81.6 1117.33 84C1117.72 84.8 1117.2 84.9333 1116.15 84.5333C1113.65 83.6 1113.39 85.4667 1115.75 87.8667C1117.33 89.7333 1116.8 89.7333 1110.9 87.2C1109.46 86.6667 1109.19 87.2 1109.72 89.0667C1110.51 92.1333 1107.62 94.4 1106.18 92C1105.52 91.0667 1105.39 89.3333 1105.91 88.2667C1106.44 86.8 1106.05 86.4 1104.6 87.0667C1103.16 87.6 1102.24 86.9333 1101.85 85.0667C1101.32 82.9333 1100.4 82.6667 1098.04 83.3333C1096.34 83.8667 1094.89 84.9333 1094.63 85.4667C1094.37 86.1333 1093.32 86.6667 1092.27 86.6667C1089.52 86.6667 1090.04 88.9333 1093.32 91.2L1096.21 93.3333H1092.4C1088.6 93.4667 1088.6 93.4667 1091.09 95.4667C1093.45 97.2 1093.32 97.3333 1089.52 96.5333C1087.16 96 1085.19 96.2667 1084.66 97.2C1084.14 98 1083.09 98.4 1082.43 98C1081.78 97.4667 1080.2 98.1333 1079.02 99.3333C1076.92 101.467 1076.66 101.467 1075.09 99.2C1073.64 97.2 1072.86 97.0667 1070.76 98.4C1068.27 100 1068.13 99.7333 1068.79 91.8667C1069.45 85.0667 1069.18 83.3333 1067.22 81.8667C1065.25 80.4 1065.25 80.1333 1066.82 80C1067.87 80 1070.63 78.4 1072.73 76.6667L1076.66 73.3333H1072.86C1069.58 73.3333 1069.18 72.9333 1069.84 69.7333C1070.23 67.3333 1069.71 65.4667 1068.4 64.2667C1066.82 63.0667 1066.82 62.8 1068.13 63.4667C1069.84 64.4 1069.84 64.1333 1068.27 62.2667C1067.35 61.0667 1066.95 59.0667 1067.35 57.8667C1067.87 56.4 1067.61 55.8667 1066.3 56.4C1063.15 57.6 1062.76 55.7333 1065.77 53.2C1067.22 51.7333 1068.13 50.6667 1067.48 50.6667C1066.95 50.6667 1067.22 49.7333 1068.13 48.6667C1069.18 47.4667 1069.31 46.6667 1068.4 46.6667C1067.61 46.6667 1066.69 47.2 1066.3 47.7333C1065.12 49.7333 1057.9 49.3333 1057.11 47.3333C1056.2 44.8 1058.82 43.3333 1060.66 45.2C1061.44 46 1062.62 46.6667 1063.41 46.6667C1064.07 46.6667 1064.2 46.2667 1063.8 45.7333C1063.28 45.3333 1063.54 44.1333 1064.46 43.0667C1065.77 41.4667 1065.38 41.3333 1062.23 42.1333C1059.21 42.9333 1058.69 42.6667 1059.34 40.9333C1059.74 39.7333 1059.48 38.5333 1058.56 38.1333C1057.38 37.7333 1057.51 37.0667 1058.95 36.1333C1060 35.3333 1060.39 34.6667 1059.61 34.5333C1058.95 34.5333 1059.74 34 1061.44 33.4667C1065.38 32.4 1066.69 29.3333 1063.28 29.3333C1061.44 29.3333 1061.31 29.0667 1062.76 28.1333C1064.2 27.2 1064.07 26.6667 1061.84 25.4667C1057.77 23.3333 1056.46 23.6 1055.54 27.3333C1055.15 29.2 1054.23 30.6667 1053.57 30.6667C1052.92 30.6667 1052.39 31.6 1052.39 32.6667C1052.39 34.2667 1051.34 34.5333 1047.01 33.8667L1041.64 32.9333L1042.29 37.8667C1042.82 42.1333 1042.68 42.5333 1040.85 41.0667C1039.14 39.4667 1038.88 40 1039.54 44.9333C1040.45 51.2 1039.93 51.7333 1036.39 48.4C1034.16 46.4 1034.03 46.4 1034.03 49.0667C1034.03 50.6667 1033.5 52 1032.71 52C1030.88 52 1031.93 57.7333 1033.76 58.4C1034.68 58.6667 1035.34 59.4667 1035.34 60.2667C1035.34 61.0667 1034.42 60.9333 1033.24 59.8667C1031.53 58.5333 1031.01 58.5333 1030.09 60C1028.52 62.6667 1030.75 64.9333 1035.99 65.8667C1040.45 66.8 1042.95 68.8 1041.37 70.2667C1040.98 70.8 1039.27 70.4 1037.57 69.6C1035.99 68.8 1033.76 68.2667 1032.71 68.2667C1031.67 68.4 1029.44 68 1027.86 67.4667C1022.22 65.6 1024.84 68.8 1031.14 71.4667L1037.31 74.1333L1030.22 73.8667C1022.48 73.4667 1022.61 75.2 1030.48 78.2667L1034.68 80L1030.09 79.2C1027.6 78.6667 1024.32 77.4667 1022.88 76.5333C1021.43 75.4667 1019.99 74.6667 1019.47 74.6667C1017.89 74.6667 1017.37 81.2 1018.81 82.8C1019.86 84 1019.73 84.1333 1017.89 83.4667C1016.58 83.0667 1014.87 82.6667 1014.09 82.6667C1013.3 82.6667 1013.04 81.4667 1013.43 80.1333C1013.82 78.4 1013.43 77.7333 1012.38 78.1333C1010.02 79.0667 1007.66 75.4667 1007.53 70.8C1007.4 65.6 1006.35 65.6 1000.84 70.6667C998.345 72.9333 995.59 74.6667 994.803 74.6667C993.885 74.6667 991.786 75.6 990.08 76.8C988.375 78 986.276 78.5333 985.62 78.1333C983.39 76.6667 985.62 73.3333 988.9 73.3333C991.13 73.3333 992.704 72 994.672 68C997.82 61.7333 995.721 60.6667 990.736 66C988.244 68.6667 986.801 69.2 983.915 68.6667C981.554 68.1333 980.242 68.4 980.242 69.3333C980.242 70.1333 979.586 70.4 978.93 70C978.012 69.4667 978.668 68.1333 980.373 66.5333C982.997 64.1333 983.128 64 980.767 64C978.668 64 978.536 63.7333 980.242 62.6667C981.816 61.6 981.816 61.3333 980.373 61.3333C979.324 61.3333 978.93 60.4 979.324 58.8C979.848 56.5333 979.324 56.2667 976.306 56.6667C973.027 57.0667 972.764 56.8 973.158 52.5333C973.42 48.8 973.027 48 970.928 48C969.616 48 967.255 46.8 965.943 45.4667C963.844 43.3333 963.057 43.2 962.008 44.5333C961.22 45.4667 960.958 46.5333 961.352 47.0667C961.745 47.4667 960.827 48.1333 959.384 48.6667C955.973 49.7333 955.711 55.6 958.99 58.2667C961.089 60 960.958 60.1333 957.678 59.6C955.317 59.2 954.399 59.6 954.792 60.6667C955.317 61.8667 954.399 62.1333 952.169 61.7333C950.332 61.3333 948.758 60.5333 948.758 59.8667C948.758 57.6 946.266 58.6667 945.479 61.3333C944.954 62.8 944.167 63.7333 943.511 63.3333C941.674 62.1333 940.494 65.4667 942.068 67.0667C944.036 69.0667 943.904 70.6667 941.543 70.6667C940.362 70.6667 939.969 69.8667 940.362 68.6667C940.887 67.6 940.494 66.6667 939.707 66.6667C938.919 66.6667 937.214 64.5333 936.033 62C934.066 57.7333 931.704 55.7333 931.704 58.2667C931.704 58.9333 929.737 61.6 927.244 64.5333C922.522 69.7333 922.391 72.5333 926.195 75.6C929.081 78 927.113 77.7333 922.259 75.2C920.029 74 917.143 73.3333 915.831 73.7333C914.388 74.1333 911.765 72.9333 909.272 70.6667C905.337 67.2 900.221 66.5333 900.221 69.4667C900.221 70.1333 898.778 70.6667 896.941 70.6667C894.318 70.6667 893.793 71.3333 894.055 73.6C894.186 75.8667 893.662 76.5333 891.956 76.2667C890.776 76 889.333 76.8 888.939 78C888.546 79.0667 887.234 80 886.184 80C885.004 80 884.479 79.2 884.872 78.1333C885.266 77.0667 884.872 75.3333 884.085 74.1333C882.642 72.1333 882.118 72.2667 879.1 75.2C877.133 77.0667 875.296 78.2667 874.903 77.8667C873.853 76.8 868.737 80.4 868.868 82C868.999 82.6667 868.999 84.4 868.868 85.6C868.737 88.8 865.195 87.2 864.277 83.6C863.621 80.8 863.49 80.9333 860.473 84.4C857.587 88 855.619 88 855.619 84.5333C855.619 83.6 856.799 82.4 858.242 82C861.522 80.9333 861.653 78.6667 858.374 79.6C855.619 80.2667 853.52 78 855.619 76.6667C857.98 75.2 857.062 72.2667 854.438 72.9333C852.208 73.4667 851.815 72.9333 851.946 69.4667C852.077 64 851.159 63.2 847.092 65.8667C845.255 67.0667 843.812 67.4667 843.812 66.8C843.812 66.1333 842.894 65.3333 841.845 64.8C839.746 64 834.236 68.5333 835.548 69.8667C836.073 70.2667 835.679 70.6667 834.761 70.6667C833.711 70.6667 833.318 71.4667 833.843 72.8C834.499 74.5333 833.974 74.8 831.481 74.4C829.12 73.8667 827.808 74.6667 826.234 77.6C824.922 79.6 823.479 81.3333 822.692 81.3333C822.036 81.3333 821.512 82.4 821.512 83.7333C821.512 85.0667 821.249 86.5333 820.856 86.9333C819.675 88.1333 813.641 86.4 814.428 85.2C814.821 84.5333 814.165 84 812.985 84C811.804 84 811.279 83.3333 811.673 82.6667C812.854 80.6667 811.148 76 809.312 76C807.344 76 802.359 81.4667 802.884 83.0667C803.408 84.8 799.998 87.6 798.161 86.9333C797.374 86.6667 796.193 87.3333 795.8 88.5333C794.226 92.5333 792.914 90.6667 793.963 85.8667C794.882 82 794.75 81.3333 793.045 81.8667C791.733 82.4 791.34 82 791.996 80.1333C792.52 78.4 791.996 77.4667 789.897 76.9333C788.454 76.5333 787.535 75.6 787.929 74.8C788.847 73.3333 786.224 66.6667 784.518 66.6667C783.993 66.6667 783.469 67.6 783.469 68.6667C783.469 69.7333 782.55 70.6667 781.501 70.6667C780.32 70.6667 779.927 71.4667 780.452 72.9333C781.107 74.5333 780.714 74.9333 779.14 74.2667C777.697 73.7333 776.91 74.1333 776.91 75.4667C776.91 76.5333 776.385 77.0667 775.598 76.6667C774.942 76.2667 774.024 77.3333 773.499 79.2C772.712 82.5333 771.794 83.0667 764.316 84.6667C760.381 85.4667 760.25 85.3333 760.905 81.3333C761.168 79.0667 760.905 77.3333 760.381 77.4667C759.725 77.6 757.626 77.6 755.789 77.4667C752.903 77.3333 752.379 76.8 752.903 74C753.69 70.2667 750.542 66.2667 747.656 67.4667C745.557 68.2667 742.278 63.7333 743.721 62.1333C744.114 61.7333 743.983 61.3333 743.196 61.3333C742.409 61.3333 742.146 59.8667 742.409 58.1333C742.933 55.6 742.409 54.6667 739.916 54C738.342 53.3333 735.85 51.7333 734.669 50.2667C732.439 47.8667 732.57 47.6 735.325 45.0667L738.211 42.5333L732.964 43.2C728.503 43.8667 728.11 43.7333 730.734 42.4C732.308 41.6 733.62 39.7333 733.62 38.2667C733.62 36.1333 733.226 36 731.652 37.3333C729.159 39.4667 727.454 38.1333 726.405 32.9333C725.355 28.1333 721.157 23.4667 719.058 24.8C718.271 25.2 718.009 26.8 718.271 28.2667C718.927 30.4 718.534 30.8 716.435 30.2667C714.467 29.7333 713.942 30 714.467 31.3333C714.86 32.6667 714.467 32.9333 712.893 32.4C710.925 31.6 710.925 31.7333 712.499 33.7333C714.073 35.7333 714.073 36 711.974 35.2C710.007 34.4 709.744 34.8 710.269 36.9333C711.187 40.4 710.007 42.2667 706.727 42.9333C703.054 43.4667 701.086 45.6 701.742 48C702.136 49.2 701.349 50.9333 700.299 51.8667C698.987 53.0667 698.463 54.8 698.987 56.8C699.643 59.4667 699.25 60 697.02 60C694.658 60 694.265 60.6667 694.79 63.4667C695.446 66.5333 695.183 66.8 692.297 66.1333C689.805 65.4667 689.28 65.7333 689.805 67.2C690.198 68.4 689.149 70.6667 687.05 72.5333C683.508 75.8667 683.508 75.8667 680.753 73.2C678.654 71.2 678.392 70.2667 679.573 69.0667C681.671 66.9333 681.54 64 679.31 64C678.261 64 676.949 62.8 676.555 61.2C675.899 59.0667 675.244 58.8 673.932 60C672.882 60.9333 671.702 62.8 671.177 64.4C670.652 66 669.471 68 668.422 69.0667C667.373 70.1333 666.848 71.8667 667.373 73.0667C667.897 74.6667 667.635 74.6667 664.88 72.8C660.551 70 660.551 70 658.19 75.2C656.878 78 655.304 79.6 654.254 79.2C652.418 78.4 650.581 82.4 651.237 85.4667C651.762 88 646.121 88.5333 643.76 86.1333C642.71 85.0667 641.792 83.6 641.792 83.0667C641.792 80.9333 634.971 73.3333 633.79 74.1333C633.134 74.5333 632.609 74.2667 632.609 73.6C632.609 72.8 633.528 71.8667 634.708 71.4667C636.414 70.8 636.545 70.2667 635.233 68.6667C634.446 67.6 634.184 66 634.708 65.2C635.233 64.2667 634.577 62.8 633.265 61.8667C631.035 60.1333 631.035 60 633.396 59.2C634.708 58.8 637.07 58 638.513 57.3333C641.005 56.2667 641.005 56.1333 638.119 56.1333C636.414 56 635.495 55.4667 635.889 54.6667C636.282 53.8667 635.758 53.3333 634.708 53.3333C633.396 53.3333 633.003 52.5333 633.396 51.3333C633.921 50.1333 633.528 49.3333 632.478 49.3333C631.56 49.3333 631.822 48.5333 633.396 47.4667C635.758 45.6 635.758 45.4667 632.216 44.6667C628.543 43.7333 627.624 42.1333 629.986 40.6667C630.773 40.1333 630.117 38.2667 628.149 36C626.444 33.8667 624.738 31.3333 624.345 30.4C624.083 29.4667 623.295 29.2 622.64 29.7333C621.984 30.2667 622.377 31.3333 623.427 32C625.001 33.0667 624.738 33.3333 622.246 33.3333C619.885 33.3333 619.36 33.8667 619.885 36C620.409 38.2667 620.147 38.5333 617.261 37.7333C614.9 37.2 614.113 37.4667 614.769 38.5333C615.424 39.4667 614.637 40 612.67 40L609.652 40.1333L612.801 42.6667C615.162 44.6667 615.293 45.3333 613.719 45.3333C612.539 45.3333 611.62 46.2667 611.62 47.4667C611.62 49.0667 611.096 49.3333 610.046 48.4C608.341 46.9333 603.618 47.0667 596.272 48.8C591.156 49.8667 590.762 48.5333 594.698 43.4667C596.141 41.6 596.928 39.3333 596.403 38.5333C596.01 37.7333 596.403 36.4 597.321 35.7333C598.764 34.8 598.502 34.6667 596.665 35.2C594.96 35.8667 594.435 35.4667 595.091 34C595.878 31.7333 593.911 31.2 592.599 33.3333C591.025 35.8667 589.188 34.8 590.631 32C591.681 29.8667 591.418 29.2 589.057 27.8667C584.597 25.6 580.399 20.2667 579.481 15.7333C578.825 12.6667 578.038 11.8667 576.07 12.4C574.102 12.9333 573.577 12.4 573.577 9.59999C573.577 7.73332 573.184 6.66666 572.79 7.06667C572.266 7.59999 570.823 6.66666 569.38 5.06667L566.887 2.13333L566.1 5.06667C565.706 6.66666 564.526 8 563.476 8C560.459 8 557.18 12.1333 557.573 15.6C557.967 17.8667 557.442 18.4 556.13 17.8667C555.081 17.4667 553.769 17.7333 553.244 18.5333C552.851 19.3333 553.244 20 554.162 20C555.474 20 555.474 20.2667 554.031 21.2C551.539 22.8 547.997 21.4667 549.833 19.6C552.457 16.9333 551.539 13.4667 548.522 14.2667C546.16 14.9333 546.029 14.5333 546.816 11.3333C547.603 8 547.472 7.73332 544.717 8.66666C542.094 9.46666 541.831 9.33333 542.75 5.33333C543.668 1.33333 543.537 1.2 541.044 2.53333C537.502 4.39999 536.846 4.39999 536.846 2C536.846 0.933319 536.322 0 535.535 0C534.879 0 534.223 0.533325 534.223 1.06667ZM579.218 30.8C576.988 33.0667 574.365 30.9333 576.332 28.5333C577.382 27.2 578.3 26.9333 579.349 28C580.268 28.9333 580.268 29.7333 579.218 30.8ZM1673.28 40.1333C1671.05 42.4 1668.55 40.2667 1670.65 38C1671.57 36.9333 1672.75 36.6667 1673.54 37.4667C1674.19 38.2667 1674.19 39.2 1673.28 40.1333ZM525.958 38.1333C525.565 38.5333 524.384 38.6667 523.466 38.2667C522.416 37.8667 522.81 37.4667 524.253 37.4667C525.696 37.3333 526.483 37.7333 525.958 38.1333ZM1562.69 51.3333C1564.79 53.8667 1562.69 53.8667 1559.28 51.3333C1557.18 49.7333 1557.18 49.4667 1558.89 49.3333C1560.07 49.3333 1561.77 50.2667 1562.69 51.3333ZM608.209 51.7333C608.472 52.2667 607.291 52.9333 605.323 53.0667C602.569 53.2 602.175 53.0667 603.749 52C606.111 50.4 607.291 50.4 608.209 51.7333ZM449.873 56.8C449.479 57.2 448.299 57.3333 447.38 56.9333C446.331 56.5333 446.724 56.1333 448.167 56.1333C449.61 56 450.397 56.4 449.873 56.8ZM1043.21 61.3333C1043.21 62 1042.68 62.6667 1041.9 62.6667C1041.24 62.6667 1040.59 62 1040.59 61.3333C1040.59 60.5333 1041.24 60 1041.9 60C1042.68 60 1043.21 60.5333 1043.21 61.3333ZM1703.05 61.2C1703.05 62.8 1699.64 64 1695.45 63.8667C1692.04 63.8667 1692.17 63.7333 1696.5 62C1702.14 59.7333 1703.05 59.7333 1703.05 61.2ZM605.061 62.6667C605.061 63.3333 604.143 64 603.093 64C602.044 64 601.126 63.3333 601.126 62.6667C601.126 61.8667 602.044 61.3333 603.093 61.3333C604.143 61.3333 605.061 61.8667 605.061 62.6667ZM467.32 66.6667C467.32 67.3333 466.795 68 466.008 68C465.352 68 464.696 67.3333 464.696 66.6667C464.696 65.8667 465.352 65.3333 466.008 65.3333C466.795 65.3333 467.32 65.8667 467.32 66.6667ZM969.878 68.4C968.173 70.1333 966.468 68.8 967.779 66.8C968.173 66 969.223 65.7333 970.01 66.1333C970.797 66.6667 970.797 67.4667 969.878 68.4ZM1539.73 71.6C1541.18 72.4 1541.96 73.4667 1541.44 74C1540.39 75.0667 1532.26 71.6 1530.16 69.0667C1528.71 67.2 1528.98 67.0667 1532.78 68.5333C1535.14 69.3333 1538.29 70.8 1539.73 71.6ZM1060.26 72C1060.26 72.6667 1059.74 73.3333 1058.95 73.3333C1058.3 73.3333 1057.64 72.6667 1057.64 72C1057.64 71.2 1058.3 70.6667 1058.95 70.6667C1059.74 70.6667 1060.26 71.2 1060.26 72ZM1698.86 73.0667C1699.12 74 1698.59 74.4 1697.28 73.8667C1696.1 73.4667 1695.18 72.4 1695.18 71.7333C1695.18 70 1698.2 71.0667 1698.86 73.0667ZM408.55 75.3333C405.796 79.2 400.811 81.7333 399.761 79.8667C398.449 77.8667 404.09 72.6667 407.632 72.5333C410.78 72.2667 410.78 72.4 408.55 75.3333ZM386.512 76.6667C385.594 78.8 383.363 79.4667 383.363 77.4667C383.363 76.4 384.282 75.7333 386.905 74.8C387.037 74.6667 386.905 75.6 386.512 76.6667ZM467.976 77.3333C468.369 78 468.107 78.6667 467.451 78.6667C466.664 78.6667 466.008 78 466.008 77.3333C466.008 76.5333 466.271 76 466.533 76C466.926 76 467.582 76.5333 467.976 77.3333ZM1003.85 78.1333C1003.85 79.7333 996.771 85.3333 994.672 85.3333C991.13 85.3333 991.392 82.8 995.065 81.3333C996.64 80.6667 997.427 80.1333 996.902 80.1333C996.246 80 996.115 79.6 996.377 78.9333C997.033 78 1003.85 77.2 1003.85 78.1333ZM1487.92 80C1487.92 80.6667 1487 81.3333 1485.95 81.3333C1484.9 81.3333 1483.98 80.6667 1483.98 80C1483.98 79.2 1484.9 78.6667 1485.95 78.6667C1487 78.6667 1487.92 79.2 1487.92 80ZM1513.5 82.4C1513.1 82.8 1512.05 82.4 1511.14 81.4667C1509.95 80.1333 1510.09 80 1511.92 80.8C1513.23 81.2 1513.89 82 1513.5 82.4ZM424.555 84.9333C421.931 86.9333 420.094 87.2 420.094 85.6C420.094 83.4667 423.112 81.6 425.079 82.2667C426.785 82.9333 426.654 83.3333 424.555 84.9333ZM488.309 84L491.589 86.6667L488.309 86.2667C484.111 85.8667 481.488 84.1333 482.406 82.5333C483.587 80.8 484.636 81.0667 488.309 84ZM1062.23 82.6667C1062.62 83.3333 1062.1 84 1061.05 84C1059.87 84 1058.95 83.3333 1058.95 82.6667C1058.95 81.8667 1059.48 81.3333 1060.13 81.3333C1060.92 81.3333 1061.84 81.8667 1062.23 82.6667ZM474.141 85.0667C473.092 85.3333 473.223 86.4 474.666 88.8C476.109 90.8 476.24 92 475.322 92C473.486 92 471.387 86.6667 472.174 84.4C472.567 83.4667 473.486 83.0667 474.273 83.6C475.322 84.2667 475.322 84.6667 474.141 85.0667ZM402.385 85.3333C401.991 86 401.073 86.6667 400.286 86.6667C399.63 86.6667 399.105 86 399.105 85.3333C399.105 84.5333 400.024 84 401.204 84C402.254 84 402.778 84.5333 402.385 85.3333ZM245.622 86.6667C245.622 87.3333 245.098 88 244.31 88C243.655 88 242.999 87.3333 242.999 86.6667C242.999 85.8667 243.655 85.3333 244.31 85.3333C245.098 85.3333 245.622 85.8667 245.622 86.6667ZM273.171 88.1333C273.171 88.9333 272.646 89.0667 271.859 88.6667C271.203 88.2667 270.547 87.2 270.547 86.5333C270.547 85.7333 271.203 85.6 271.859 86C272.646 86.4 273.171 87.4667 273.171 88.1333ZM429.933 86.6667C430.458 87.6 431.507 87.6 432.294 86.9333C433.737 85.8667 434.656 85.8667 439.378 86.4C441.215 86.6667 440.165 90.4 437.542 93.0667C436.361 94.4 435.18 94.4 433.213 93.3333C431.77 92.5333 430.589 92.4 430.589 92.9333C430.589 93.4667 429.933 93.2 429.146 92.4C428.359 91.6 426.916 91.2 425.998 91.4667C424.817 92 424.555 91.0667 424.948 88.8C425.604 85.3333 428.359 84.1333 429.933 86.6667ZM1573.71 86.9333C1573.32 87.4667 1572.14 88 1571.09 88C1570.04 88 1569.25 87.4667 1569.25 86.9333C1569.25 86.4 1570.43 85.8667 1571.74 85.8667C1573.18 85.8667 1573.97 86.4 1573.71 86.9333ZM266.874 88.6667C266.874 89.3333 267.398 91.0667 268.054 92.2667C269.76 95.4667 268.579 95.3333 264.644 91.7333C262.938 90.2667 261.758 88.4 262.151 87.7333C263.069 86.1333 266.743 86.9333 266.874 88.6667ZM482.799 89.2C483.193 90.2667 482.275 90.8 480.307 90.4C478.733 90.2667 477.159 89.2 476.765 88.2667C476.503 87.2 477.29 86.8 479.258 87.0667C480.963 87.3333 482.537 88.2667 482.799 89.2ZM1017.5 90.2667C1014.09 92.8 1012.77 92.4 1014.35 89.3333C1015.14 87.7333 1016.45 87.0667 1017.89 87.6C1019.73 88.4 1019.73 88.6667 1017.5 90.2667ZM396.482 89.3333C397.925 90.2667 396.613 90.5333 391.89 90.5333C386.118 90.4 385.856 90.2667 389.267 89.3333C391.497 88.8 393.464 88.2667 393.858 88.1333C394.252 88.1333 395.432 88.6667 396.482 89.3333ZM816.789 90.5333C817.314 91.2 816.395 91.4667 814.952 91.0667C811.935 90.2667 811.542 89.3333 814.165 89.3333C815.215 89.3333 816.395 89.8667 816.789 90.5333ZM989.425 90.6667C989.425 91.3333 989.162 92 988.9 92C988.506 92 987.85 91.3333 987.457 90.6667C987.063 89.8667 987.326 89.3333 987.982 89.3333C988.769 89.3333 989.425 89.8667 989.425 90.6667ZM995.984 90.6667C995.984 91.3333 995.721 92 995.459 92C995.065 92 994.409 91.3333 994.016 90.6667C993.622 89.8667 993.885 89.3333 994.541 89.3333C995.328 89.3333 995.984 89.8667 995.984 90.6667ZM1022.88 92C1023.4 92.8 1024.45 92.9333 1025.24 92.4C1026.16 91.7333 1027.73 91.3333 1028.78 91.4667C1029.83 91.6 1031.93 91.8667 1033.37 92C1034.81 92.1333 1035.34 92.5333 1034.42 92.9333C1033.5 93.2 1032.71 94.1333 1032.71 94.9333C1032.71 97.6 1029.3 99.7333 1027.07 98.4C1025.76 97.7333 1024.32 97.4667 1023.66 98C1023.01 98.4 1022.09 98.1333 1021.56 97.4667C1021.17 96.6667 1019.86 96.5333 1018.68 96.9333C1017.5 97.4667 1016.84 97.2 1017.24 96.5333C1017.63 95.8667 1018.28 94.2667 1018.68 92.9333C1019.6 90.4 1021.56 90 1022.88 92ZM1099.62 92C1099.62 92.6667 1099.36 93.3333 1099.09 93.3333C1098.7 93.3333 1098.04 92.6667 1097.65 92C1097.26 91.2 1097.52 90.6667 1098.17 90.6667C1098.96 90.6667 1099.62 91.2 1099.62 92ZM1584.99 96.1333C1584.99 96.9333 1584.2 96.9333 1582.76 96.1333C1580.4 94.9333 1579.48 94.6667 1577.12 94.6667C1576.46 94.6667 1576.2 93.8667 1576.6 92.8C1577.12 91.2 1577.91 91.2 1581.19 92.9333C1583.29 94 1584.99 95.4667 1584.99 96.1333ZM795.275 93.3333C795.275 94 795.013 94.6667 794.75 94.6667C794.357 94.6667 793.701 94 793.307 93.3333C792.914 92.5333 793.176 92 793.832 92C794.619 92 795.275 92.5333 795.275 93.3333ZM989.425 94.6667C990.868 95.6 989.687 95.8667 985.489 95.8667C980.635 95.7333 980.111 95.6 982.865 94.6667C987.326 93.2 987.194 93.2 989.425 94.6667ZM127.558 96.5333C127.558 96.8 126.64 97.3333 125.591 97.8667C124.541 98.2667 123.623 98 123.623 97.3333C123.623 96.5333 124.541 96 125.591 96C126.64 96 127.558 96.2667 127.558 96.5333ZM430.589 98.6667C430.589 99.3333 429.54 100 428.359 100C426.391 100 426.26 99.7333 427.965 98.6667C430.458 97.0667 430.589 97.0667 430.589 98.6667ZM1576.07 100.267C1575.15 101.2 1574.5 101.333 1574.5 100.533C1574.5 98.6667 1576.07 97.0667 1576.99 98C1577.25 98.4 1576.86 99.4667 1576.07 100.267ZM50.161 100.533C50.161 100.8 49.2427 101.467 48.0621 101.867C47.0126 102.267 46.4879 102.133 46.8815 101.333C47.6685 100 50.161 99.4667 50.161 100.533ZM223.321 104.133C223.321 106.4 222.797 107.867 222.01 107.333C221.354 106.933 220.698 105.067 220.698 103.2C220.698 101.467 221.354 100 222.01 100C222.797 100 223.321 101.867 223.321 104.133ZM1083.88 102.667C1085.58 103.733 1085.58 104 1083.61 104C1082.43 104 1080.46 104.4 1079.15 104.933C1077.05 105.733 1076.92 105.6 1078.63 103.6C1080.99 101.067 1081.25 100.933 1083.88 102.667ZM425.342 103.867C425.342 104.533 424.423 105.333 423.505 105.733C422.193 106.267 421.8 105.867 422.324 104.533C423.112 102.533 425.342 102 425.342 103.867ZM1023.53 104C1023.53 104.667 1022.48 105.333 1021.3 105.333C1019.33 105.333 1019.2 105.067 1020.91 104C1023.4 102.4 1023.53 102.4 1023.53 104ZM310.557 106.667C310.951 107.333 310.82 108 310.033 108C309.377 108 308.327 107.333 307.934 106.667C307.54 105.867 307.671 105.333 308.458 105.333C309.114 105.333 310.164 105.867 310.557 106.667ZM1221.62 105.867C1221.62 107.333 1219.12 107.867 1218.34 106.667C1217.94 106 1218.47 105.333 1219.52 105.333C1220.7 105.333 1221.62 105.6 1221.62 105.867ZM1886.32 107.467C1885.92 107.867 1884.74 108 1883.82 107.6C1882.77 107.2 1883.17 106.8 1884.61 106.8C1886.05 106.667 1886.84 107.067 1886.32 107.467ZM306.622 109.2C307.015 109.867 306.622 110.933 305.835 111.467C304.917 112 304.654 111.867 305.179 110.933C305.572 110.133 304.917 109.2 303.736 108.933C301.637 108.4 301.637 108.267 303.605 108.133C304.785 108.133 306.097 108.533 306.622 109.2ZM1143.56 110.667C1143.17 111.333 1142.12 112 1141.46 112C1140.68 112 1140.55 111.333 1140.94 110.667C1141.33 109.867 1142.38 109.333 1143.04 109.333C1143.83 109.333 1143.96 109.867 1143.56 110.667ZM128.477 111.467C128.083 111.867 126.903 112 125.984 111.6C124.935 111.2 125.328 110.8 126.771 110.8C128.214 110.667 129.001 111.067 128.477 111.467ZM1889.33 113.333C1889.33 114 1888.42 114.667 1887.37 114.667C1886.32 114.667 1885.4 114 1885.4 113.333C1885.4 112.533 1886.32 112 1887.37 112C1888.42 112 1889.33 112.533 1889.33 113.333ZM1886.71 118.667C1886.71 119.333 1886.19 120 1885.4 120C1884.74 120 1884.09 119.333 1884.09 118.667C1884.09 117.867 1884.74 117.333 1885.4 117.333C1886.19 117.333 1886.71 117.867 1886.71 118.667ZM183.967 126.533C183.967 127.2 183.048 128.8 181.868 129.867C179.244 132.667 176.489 132.667 178.719 130C179.638 128.933 179.9 128 179.244 127.867C178.326 127.867 181.605 126 183.704 125.467C183.836 125.333 183.967 125.867 183.967 126.533Z" fill="#1B191E"/>
<path d="M170.586 112.533C166.52 114 165.733 116 169.012 116C170.98 116 175.571 112.267 174.653 111.467C174.391 111.333 172.554 111.733 170.586 112.533Z" fill="#1B191E"/>
</g>
<defs>
<clipPath id="clip0_118_59">
<rect width="1931" height="136" fill="white" transform="translate(-1)"/>
</clipPath>
</defs>
</svg>
