<svg width="34" height="32" viewBox="0 0 34 32" fill="none" xmlns="http://www.w3.org/2000/svg">
<g clip-path="url(#clip0_118_84)">
<path d="M29.75 32H4.25C1.904 32 0 30.208 0 28V4C0 1.792 1.904 0 4.25 0H29.75C32.096 0 34 1.792 34 4V28C34 30.208 32.096 32 29.75 32ZM13.056 24.128C21.0715 24.128 25.4575 17.872 25.4575 12.456C25.4575 12.28 25.4575 12.104 25.449 11.928C26.299 11.352 27.0385 10.624 27.625 9.8C26.843 10.128 26.0015 10.344 25.1175 10.448C26.0185 9.944 26.707 9.136 27.0385 8.176C26.197 8.648 25.262 8.984 24.2675 9.168C23.4685 8.368 22.338 7.872 21.0885 7.872C18.683 7.872 16.728 9.712 16.728 11.976C16.728 12.296 16.7705 12.608 16.8385 12.912C13.2175 12.744 10.0045 11.104 7.854 8.624C7.48 9.232 7.2675 9.936 7.2675 10.688C7.2675 12.112 8.041 13.368 9.2055 14.104C8.4915 14.08 7.82 13.896 7.2335 13.592C7.2335 13.608 7.2335 13.624 7.2335 13.648C7.2335 15.632 8.738 17.296 10.727 17.672C10.3615 17.768 9.979 17.816 9.5795 17.816C9.299 17.816 9.027 17.792 8.7635 17.744C9.316 19.376 10.931 20.56 12.835 20.592C11.339 21.696 9.4605 22.352 7.4205 22.352C7.072 22.352 6.7235 22.336 6.3835 22.296C8.3045 23.448 10.5995 24.128 13.056 24.128Z" fill="white"/>
</g>
<defs>
<clipPath id="clip0_118_84">
<rect width="34" height="32" fill="white"/>
</clipPath>
</defs>
</svg>
